<?xml version="1.0" encoding="UTF-8"?><svg id="Layer_1" xmlns="http://www.w3.org/2000/svg" viewBox="0 0 32 32"><defs><style>.cls-1{fill:#002fa7;}</style></defs><path class="cls-1" d="M17.08,21.4l-.33,.05h-.02s-.05,0-.07,.01h-.09c-4.32,.72-7.98,.81-11.18,.3-.86-.14-2.12-.38-3.21-.84C.91,20.37,.18,19.63,.03,18.71c-.39-2.25,2.95-4.06,4.06-4.65,2.92-1.58,6.52-2.72,10.99-3.48s8.25-.87,11.53-.34c2.14,.35,5.02,1.03,5.36,3.06s-2.15,3.62-4.06,4.65c-2.85,1.54-6.33,2.65-10.65,3.41h-.09s-.05,.02-.07,.02-.02,.01-.03,.01h0Zm-.37-.12h.01l.34-.06h0s.05,0,.07-.01h.09c4.29-.76,7.76-1.88,10.59-3.41,4.32-2.34,4.05-3.94,3.96-4.46-.35-2.13-4.01-2.72-5.2-2.91-3.25-.53-7-.42-11.46,.34-4.46,.76-8.03,1.89-10.94,3.46C-.15,16.56,.12,18.16,.21,18.69c.36,2.12,4.02,2.71,5.21,2.91,3.18,.51,6.81,.42,11.12-.29h.09s.05-.02,.07-.02h.01Z"/><path class="cls-1" d="M16.76,20.54c-.09,.01-.18,.03-.27,.04-.18,.03-.39,.06-.62,.1h-.02c-.1,.02-.2,.04-.31,.05-.1,.01-.2,.03-.31,.04h-.02c-.16,.02-.34,.04-.52,.07h-.02l-.23,.02c-.06,0-.13,.01-.19,.03h0c-1.39,.15-2.71,.24-3.92,.26-2.2,.03-3.96-.17-5.24-.6-1.21-.41-1.99-1.03-2.29-1.85-.05-.14-.09-.28-.12-.43-.11-.64,.05-1.28,.47-1.88,.58-.85,1.69-1.65,3.3-2.39,1.51-.7,3.41-1.33,5.66-1.88,1.42-.35,2.57-.56,3.12-.65s1.72-.27,3.16-.42c1.59-.16,3.91-.31,5.97-.1,1.76,.17,3.08,.57,3.92,1.18,.58,.43,.93,.97,1.04,1.61,.03,.15,.04,.31,.03,.46-.03,.87-.54,1.71-1.54,2.49-1.06,.82-2.66,1.6-4.75,2.29-1.16,.38-2.44,.73-3.8,1.04-.05,.01-.1,.02-.14,.03l-.47,.1c-.12,.02-.24,.05-.36,.07l-.12,.03c-.07,.01-.13,.02-.2,.04s-.14,.03-.22,.04l-.12,.02c-.23,.04-.43,.08-.62,.12-.08,.02-.17,.04-.26,.05Zm-2.11,.12h.03c.17-.02,.34-.04,.51-.07h.02c.1-.01,.21-.03,.31-.04s.22-.03,.31-.04h.02c.23-.04,.43-.07,.61-.1,.2-.03,.35-.05,.54-.09,.18-.03,.39-.07,.62-.12l.12-.02c.07-.01,.14-.02,.21-.04l.19-.04,.12-.02c.12-.02,.23-.05,.35-.07l.47-.1s.09-.02,.14-.03c1.36-.3,2.63-.66,3.78-1.04,2.08-.69,3.66-1.45,4.7-2.27,.95-.74,1.45-1.53,1.47-2.35,0-.14,0-.29-.03-.43-.1-.59-.43-1.09-.97-1.5-.81-.59-2.09-.98-3.82-1.15-2.05-.2-4.35-.05-5.93,.1-1.44,.14-2.6,.32-3.15,.42s-1.7,.3-3.11,.65c-2.2,.54-4.15,1.18-5.63,1.86-1.58,.73-2.66,1.51-3.23,2.33-.39,.56-.54,1.15-.44,1.75,.02,.14,.06,.27,.11,.4,.29,.77,1.02,1.36,2.19,1.75,1.25,.42,2.99,.62,5.17,.59,1.21-.02,2.52-.1,3.9-.26h.01c.06,0,.13-.01,.19-.03l.22-.03Z"/><path class="cls-1" d="M9.62,18.75h-.04l.02,.16c.05,0,.1,0,.16-.01,.14-.01,.29-.01,.43,0-.19-.04-.39-.09-.57-.15Zm2,.29h0Zm.07-.01h0m17.6-5.27c-.1-.65-.46-1.18-1.04-1.61-.83-.62-2.15-1.01-3.92-1.18-2.06-.2-4.37-.05-5.96,.1-1.44,.14-2.6,.32-3.16,.42s-1.7,.3-3.12,.65c-2.25,.55-4.15,1.18-5.66,1.88-1.61,.74-2.71,1.55-3.3,2.39-.42,.6-.58,1.24-.47,1.88,.02,.11,.05,.22,.08,.33,.01,.04,.02,.07,.04,.11,0,.02,.02,.04,.03,.07,.32,.79,1.09,1.39,2.27,1.78,1.27,.43,3.04,.63,5.24,.6h.04l.02-.03c.32-.34,.66-.68,1-.98l.02-.02,.19-.16h-.29c-1.63,.02-2.94-.13-3.91-.44h0c.84-.34,1.54-.53,2.19-.6,.56,.16,1.14,.26,1.72,.28-.4-.02-.79-.07-1.18-.14l-.21-.05-.08-.02c-.08-.02-.16-.04-.24-.07h-.02c-.11-.04-.22-.08-.33-.13-.63,.1-1.32,.32-2.14,.66l-.2,.09h-.01l.22,.09c.96,.36,2.31,.54,4.01,.54-.29,.26-.56,.54-.82,.82-2.16,.03-3.88-.17-5.12-.59-1.12-.38-1.85-.93-2.15-1.67-.01-.03-.02-.05-.03-.08s-.02-.06-.03-.09c-.03-.1-.06-.21-.08-.31-.1-.59,.05-1.18,.44-1.75,.57-.82,1.65-1.6,3.23-2.33,1.47-.68,3.42-1.33,5.62-1.86,1.41-.34,2.55-.56,3.11-.65s1.71-.27,3.15-.42c1.58-.16,3.88-.3,5.93-.1,1.73,.16,3.02,.56,3.82,1.15,.54,.4,.87,.9,.97,1.5,.03,.14,.04,.29,.03,.43-.02,.82-.52,1.61-1.47,2.35-1.03,.81-2.6,1.57-4.66,2.25-.34-.18-.71-.36-1.08-.52,1.59-.56,2.81-1.17,3.62-1.82l.18-.14h-.23c-1.14-.08-1.99-.02-2.66,.17h-.02l-.02,.02c-.48,.32-.99,.59-1.53,.8l-.09,.03c-.16,.07-.34,.13-.52,.2l-.11,.04v-.02s.02-.09,.02-.13c.03-.24,.05-.49,.04-.74,0-.04,0-.08,0-.12,0-.04,0-.08,0-.12s0-.08-.01-.12,0-.08-.01-.12c0-.05-.02-.11-.02-.16s-.02-.11-.03-.16c0-.03-.01-.05-.02-.08-.09-.42-.25-.82-.46-1.19-.07-.13-.15-.25-.23-.37-.03-.04-.05-.07-.08-.11s-.05-.06-.07-.09-.05-.06-.08-.1c-.28-.35-.62-.66-1-.91-.3-.2-.62-.36-.95-.48-.7-.25-1.45-.33-2.18-.23-.07,0-.14,.02-.22,.03h-.02c-.73,.14-1.41,.46-1.98,.93-.27,.21-.5,.45-.71,.72l-.02,.02c-.14,.18-.27,.37-.38,.57-.02,.04-.04,.08-.06,.12s-.03,.06-.05,.1-.03,.05-.04,.08c-.06,.13-.11,.27-.16,.41-.01,.04-.03,.07-.04,.11s-.02,.07-.03,.11l-.02,.09s0,.01,0,.02c0,0,0,.02,0,.03,0,.03-.01,.05-.02,.08h0v.02s0,.04-.01,.06,0,.04-.01,.05c0,.04-.02,.08-.02,.12-.02,.09-.03,.18-.04,.27,0,.03,0,.06,0,.09s0,.08,0,.12c-.01,.18-.01,.36,0,.54,0,.07,0,.14,.02,.22,0,.02,0,.03,0,.05,0,.05,.01,.1,.02,.15,0,.01,0,.02,0,.03h0v.03h0s0,.03,0,.04c0,.02,0,.04,.01,.06,.04,.21,.09,.42,.16,.62,.09,.27,.2,.54,.34,.79h0s.05,.08,.07,.13l.03,.04h.22l-.08-.13s-.02-.03-.03-.04c-.16-.26-.29-.55-.39-.84-.07-.22-.13-.44-.16-.66-.01-.08-.02-.15-.03-.23,0-.04,0-.09-.01-.13-.03-.37-.02-.75,.05-1.11,.12-.69,.4-1.34,.82-1.9,.06-.07,.12-.15,.18-.22,.16-.18,.33-.34,.51-.49,.55-.45,1.21-.75,1.9-.89h.02l.09-.02,.11-.02c.71-.1,1.43-.02,2.1,.22,1.38,.5,2.42,1.67,2.74,3.11,.01,.07,.03,.14,.04,.23,.04,.2,.06,.41,.06,.61,0,.32-.02,.64-.08,.95,0,.01,0,.03,0,.04l-.03,.16,.15-.05,.06-.02,.2-.07c.18-.06,.36-.13,.53-.2l.09-.03c.55-.22,1.07-.49,1.55-.82,.61-.17,1.38-.23,2.36-.19h0c-.82,.62-2.03,1.2-3.59,1.73l-.24,.08,.23,.09h.02c.44,.19,.88,.39,1.3,.62l.04,.02h.02c2.1-.7,3.7-1.47,4.75-2.29,1-.78,1.52-1.61,1.54-2.48,0-.16,0-.31-.03-.46Zm-17.61,5.27h0m-.05,.01h0Zm0,.18h.2c-.07,0-.14,0-.21,0h-.08m-1.95-.47l.02,.17c.05,0,.1,0,.16-.01,.14-.01,.29-.01,.43,0-.19-.04-.39-.08-.57-.14h-.04Zm.04,0h-.04l.02,.16c.05,0,.1,0,.16-.01,.14-.01,.29-.01,.43,0-.19-.04-.39-.09-.57-.15h0Zm2,.29h0Zm.07-.01h0m0,0h0m-.07,0h0Zm-2-.29h-.04l.02,.16c.05,0,.1,0,.16-.01,.14-.01,.29-.01,.43,0-.19-.04-.39-.08-.57-.14h0Z"/><path class="cls-1" d="M9.62,18.75h-.04l.02,.16c.05,0,.1,0,.16-.01,.14-.01,.29-.01,.43,0-.19-.04-.39-.09-.57-.15Zm2,.29h0Zm.07-.01h0m17.6-5.27c-.1-.65-.46-1.18-1.04-1.61-.83-.62-2.15-1.01-3.92-1.18-2.06-.2-4.37-.05-5.96,.1-1.44,.14-2.6,.32-3.16,.42s-1.7,.3-3.12,.65c-2.25,.55-4.15,1.18-5.66,1.88-1.61,.74-2.71,1.55-3.3,2.39-.42,.6-.58,1.24-.47,1.88,.02,.11,.05,.22,.08,.33,.01,.04,.02,.07,.04,.11,0,.02,.02,.04,.03,.07,.32,.79,1.09,1.39,2.27,1.78,1.27,.43,3.04,.63,5.24,.6h.04l.02-.03c.32-.34,.66-.68,1-.98l.02-.02,.19-.16h-.29c-1.63,.02-2.94-.13-3.91-.44h0c.84-.34,1.54-.53,2.19-.6,.56,.16,1.14,.26,1.72,.28-.4-.02-.79-.07-1.18-.14l-.21-.05-.08-.02c-.08-.02-.16-.04-.24-.07h-.02c-.11-.04-.22-.08-.33-.13-.63,.1-1.32,.32-2.14,.66l-.2,.09h-.01l.22,.09c.96,.36,2.31,.54,4.01,.54-.29,.26-.56,.54-.82,.82-2.16,.03-3.88-.17-5.12-.59-1.12-.38-1.85-.93-2.15-1.67-.01-.03-.02-.05-.03-.08s-.02-.06-.03-.09c-.03-.1-.06-.21-.08-.31-.1-.59,.05-1.18,.44-1.75,.57-.82,1.65-1.6,3.23-2.33,1.47-.68,3.42-1.33,5.62-1.86,1.41-.34,2.55-.56,3.11-.65s1.71-.27,3.15-.42c1.58-.16,3.88-.3,5.93-.1,1.73,.16,3.02,.56,3.82,1.15,.54,.4,.87,.9,.97,1.5,.03,.14,.04,.29,.03,.43-.02,.82-.52,1.61-1.47,2.35-1.03,.81-2.6,1.57-4.66,2.25-.34-.18-.71-.36-1.08-.52,1.59-.56,2.81-1.17,3.62-1.82l.18-.14h-.23c-1.14-.08-1.99-.02-2.66,.17h-.02l-.02,.02c-.48,.32-.99,.59-1.53,.8l-.09,.03c-.16,.07-.34,.13-.52,.2l-.11,.04v-.02s.02-.09,.02-.13c.03-.24,.05-.49,.04-.74,0-.04,0-.08,0-.12,0-.04,0-.08,0-.12s0-.08-.01-.12,0-.08-.01-.12c0-.05-.02-.11-.02-.16s-.02-.11-.03-.16c0-.03-.01-.05-.02-.08-.09-.42-.25-.82-.46-1.19-.07-.13-.15-.25-.23-.37-.03-.04-.05-.07-.08-.11s-.05-.06-.07-.09-.05-.06-.08-.1c-.28-.35-.62-.66-1-.91-.3-.2-.62-.36-.95-.48-.7-.25-1.45-.33-2.18-.23-.07,0-.14,.02-.22,.03h-.02c-.73,.14-1.41,.46-1.98,.93-.27,.21-.5,.45-.71,.72l-.02,.02c-.14,.18-.27,.37-.38,.57-.02,.04-.04,.08-.06,.12s-.03,.06-.05,.1-.03,.05-.04,.08c-.06,.13-.11,.27-.16,.41-.01,.04-.03,.07-.04,.11s-.02,.07-.03,.11l-.02,.09s0,.01,0,.02c0,0,0,.02,0,.03,0,.03-.01,.05-.02,.08h0v.02s0,.04-.01,.06,0,.04-.01,.05c0,.04-.02,.08-.02,.12-.02,.09-.03,.18-.04,.27,0,.03,0,.06,0,.09s0,.08,0,.12c-.01,.18-.01,.36,0,.54,0,.07,0,.14,.02,.22,0,.02,0,.03,0,.05,0,.05,.01,.1,.02,.15,0,.01,0,.02,0,.03h0v.03h0s0,.03,0,.04c0,.02,0,.04,.01,.06,.04,.21,.09,.42,.16,.62,.09,.27,.2,.54,.34,.79h0s.05,.08,.07,.13l.03,.04h.22l-.08-.13s-.02-.03-.03-.04c-.16-.26-.29-.55-.39-.84-.07-.22-.13-.44-.16-.66-.01-.08-.02-.15-.03-.23,0-.04,0-.09-.01-.13-.03-.37-.02-.75,.05-1.11,.12-.69,.4-1.34,.82-1.9,.06-.07,.12-.15,.18-.22,.16-.18,.33-.34,.51-.49,.55-.45,1.21-.75,1.9-.89h.02l.09-.02,.11-.02c.71-.1,1.43-.02,2.1,.22,1.38,.5,2.42,1.67,2.74,3.11,.01,.07,.03,.14,.04,.23,.04,.2,.06,.41,.06,.61,0,.32-.02,.64-.08,.95,0,.01,0,.03,0,.04l-.03,.16,.15-.05,.06-.02,.2-.07c.18-.06,.36-.13,.53-.2l.09-.03c.55-.22,1.07-.49,1.55-.82,.61-.17,1.38-.23,2.36-.19h0c-.82,.62-2.03,1.2-3.59,1.73l-.24,.08,.23,.09h.02c.44,.19,.88,.39,1.3,.62l.04,.02h.02c2.1-.7,3.7-1.47,4.75-2.29,1-.78,1.52-1.61,1.54-2.48,0-.16,0-.31-.03-.46Zm-17.61,5.27h0m-.05,.01h0Zm0,.18h.2c-.07,0-.14,0-.21,0h-.08m-1.95-.47l.02,.17c.05,0,.1,0,.16-.01,.14-.01,.29-.01,.43,0-.19-.04-.39-.08-.57-.14h-.04Zm.04,0h-.04l.02,.16c.05,0,.1,0,.16-.01,.14-.01,.29-.01,.43,0-.19-.04-.39-.09-.57-.15h0Zm2,.29h0Zm0,0h0Zm-2-.29h-.04l.02,.16c.05,0,.1,0,.16-.01,.14-.01,.29-.01,.43,0-.19-.04-.39-.08-.57-.14h0Z"/><path class="cls-1" d="M11.63,19.03h-.04c-.11,0-.22,0-.33-.01-.14,0-.27-.02-.4-.03-.22-.02-.42-.05-.6-.08-.22-.04-.44-.09-.65-.16h-.04c-.12,0-.24,.02-.36,.05-.62,.11-1.3,.31-2.1,.65-.83-.31-1.35-.77-1.55-1.35-.01-.03-.02-.06-.03-.1s-.01-.06-.02-.08-.01-.08-.02-.11c-.09-.5,.05-.99,.4-1.47l.02-.03c.47-.62,1.33-1.22,2.55-1.78,.66-.3,1.34-.55,2.03-.77,.75-.25,1.58-.48,2.46-.69,.39-.09,.75-.18,1.07-.24,.02,0,.03,0,.05-.01-.28,.14-.55,.32-.79,.52-.27,.21-.51,.46-.72,.73v.02c-.07,.08-.12,.15-.18,.23-.22,.33-.4,.68-.52,1.05-.01,.04-.03,.07-.04,.11s-.02,.07-.03,.11c0,.02,0,.03-.01,.05,0,.01,0,.02-.01,.04v.02s0,.02,0,.03c0,.03-.01,.05-.02,.08h0v.02s0,.04-.01,.06,0,.04-.01,.05v.02s-.02,.06-.02,.09c-.02,.09-.03,.18-.04,.27,0,.03,0,.06,0,.09,0,.04,0,.08,0,.12-.01,.18-.01,.36,0,.54,0,.07,.01,.14,.02,.22,0,.01,0,.03,0,.04,0,.05,.02,.1,.02,.15,0,0,0,.01,0,.02v.07c.02,.05,.03,.11,.04,.16,0,0,0,.01,0,.02,0,.03,.01,.06,.02,.09,.03,.12,.06,.23,.09,.33,0,.03,.02,.05,.03,.08l.04,.1s.02,.07,.04,.1c.03,.07,.05,.13,.08,.2,.01,.03,.03,.05,.04,.08s.03,.05,.04,.08c.04,.07,.08,.15,.12,.22,.02,.04,.05,.08,.07,.13l.03,.04h.22l-.08-.13s-.02-.03-.03-.04c-.16-.26-.3-.54-.4-.84-.07-.22-.13-.44-.16-.66-.01-.08-.02-.15-.03-.23,0-.05-.01-.09-.01-.14-.03-.37-.01-.74,.05-1.1,.12-.69,.4-1.34,.83-1.89,.05-.06,.09-.11,.14-.17,.63-.74,1.5-1.25,2.46-1.43h0l-.03-.17h0l-.32,.05c-.47,.09-1.19,.23-2.04,.43-1.79,.43-3.3,.92-4.51,1.47-1.22,.56-2.1,1.16-2.6,1.8l-.03,.03c-.4,.53-.55,1.08-.45,1.64,0,.04,.01,.07,.02,.11s.02,.07,.03,.1,.02,.05,.02,.08c.2,.61,.7,1.08,1.49,1.42h.01c.06,.03,.13,.06,.2,.09h.07l.22-.09h.01c.84-.34,1.53-.53,2.18-.61h0c.08,.02,.16,.05,.24,.07-.08-.02-.16-.04-.24-.07h-.02c-.11-.04-.22-.08-.33-.13,.12-.02,.23-.04,.35-.05l.02,.17c.05,0,.1,0,.16-.01,.14-.01,.29-.01,.43,0,.25,.05,.5,.08,.76,.11,.11,.01,.22,.02,.33,.03s.22,.01,.33,.02h.14c.1,0,.2,.01,.29,.01h-.01c-.09,0-.19-.01-.29-.01h-.07m-.04,.19h.19c-.07,0-.14,0-.21,0h-.07m.08-.19h.01m.56,.02h-.16c-.09,0-.19,0-.29,0h0c.1,0,.2,0,.29,0h.15Z"/><path class="cls-1" d="M20.34,17.85l.03-.16c.07-.33,.1-.66,.09-1,0-.2-.03-.41-.06-.61-.01-.08-.03-.15-.04-.23-.24-1.09-.9-2.04-1.83-2.65-.28-.19-.59-.34-.91-.46-.67-.24-1.39-.32-2.1-.22l-.03-.17c.42-.07,1.28-.2,2.38-.31,1.24-.12,3.06-.23,4.7-.09h.01c1.37,.12,2.41,.41,3.1,.86l.03,.02c.54,.36,.87,.82,.96,1.37,.01,.08,.02,.16,.02,.24,.02,.7-.35,1.39-1.13,2.02l-.03,.02h-.04c-1.09-.07-1.94-.01-2.6,.18-.49,.33-1.01,.6-1.55,.82l-.09,.03c-.17,.07-.34,.13-.53,.2-.09,.03-.17,.06-.26,.09l-.14,.04Zm-3.57-5.51c.31,.04,.62,.12,.91,.23,.34,.12,.66,.28,.95,.48,.6,.4,1.1,.94,1.45,1.58,.21,.37,.36,.77,.45,1.19,.02,.08,.03,.16,.05,.24,.04,.21,.06,.42,.06,.64,0,.3-.01,.59-.06,.89l.11-.04c.18-.06,.35-.13,.52-.2l.09-.03c.54-.21,1.05-.49,1.53-.81h.02l.02-.02c.67-.2,1.51-.25,2.63-.18,.71-.59,1.06-1.22,1.03-1.85,0-.08-.01-.15-.02-.23-.09-.49-.37-.91-.85-1.24l-.02-.02c-.66-.43-1.68-.72-3.03-.84h-.01c-1.62-.14-3.44-.04-4.68,.09-.42,.04-.79,.09-1.13,.13Z"/><path class="cls-1" d="M11.69,19.04h0Zm.51,0h-.16c-.09,0-.19,0-.29,0h0c.1,0,.2,.01,.29,.01h.15Zm-.56-.02h-.04c-.11,0-.22,0-.33,0-.12,0-.24-.02-.36-.03-.23-.02-.47-.05-.7-.1-.21-.04-.41-.09-.61-.15h-.04c-.64-.23-1.07-.54-1.29-.97-.02-.04-.04-.08-.06-.13,0-.02-.02-.04-.03-.07-.03-.08-.05-.15-.06-.23-.05-.29,.04-.59,.29-.9,.21-.25,.46-.47,.73-.65,.36-.25,.75-.47,1.15-.66,.67-.32,1.35-.6,2.05-.83h.01c-.08,.11-.15,.22-.21,.34-.02,.04-.04,.08-.06,.12s-.03,.06-.05,.1-.03,.05-.04,.08c-.06,.13-.11,.27-.16,.41-.01,.04-.03,.07-.04,.11s-.02,.07-.03,.11-.02,.06-.02,.09c0,0,0,.01,0,.02,0,0,0,.02,0,.03,0,.03-.01,.05-.02,.08h0v.02s0,.04-.01,.06-.01,.05-.02,.07-.01,.06-.02,.09c-.02,.09-.03,.18-.04,.27,0,.03,0,.06,0,.09s0,.08,0,.12c-.01,.18-.01,.36,0,.54,0,.07,0,.14,.02,.22,0,.01,0,.03,0,.04,0,.05,.02,.1,.02,.15,0,0,0,.01,0,.02v.07c.02,.05,.03,.11,.04,.16,0,0,0,.01,0,.02,0,.03,.01,.06,.02,.09,.03,.12,.06,.23,.09,.33,0,.03,.02,.05,.03,.08l.04,.1s.02,.07,.04,.1c.03,.07,.05,.13,.08,.2,.01,.03,.03,.05,.04,.08s.03,.05,.04,.08c.04,.07,.08,.15,.12,.22,.02,.04,.05,.08,.07,.13l.03,.04h.22l-.07-.12s-.02-.04-.03-.05c-.16-.26-.29-.54-.38-.83-.07-.21-.13-.44-.16-.66-.01-.08-.02-.15-.03-.23-.05-.41-.04-.83,.04-1.24,.12-.69,.4-1.34,.83-1.89l.14-.17,.04-.05h-.02l-.26,.09h-.05s-.01,.02-.02,.02c-.43,.14-.83,.29-1.21,.44-.39,.15-.76,.31-1.09,.48-.93,.45-1.59,.9-1.95,1.36-.28,.35-.39,.7-.32,1.04,.01,.07,.03,.14,.05,.2,.01,.05,.03,.09,.05,.13,0,.02,.02,.04,.02,.05,.19,.43,.57,.78,1.12,1.02h.02c.12-.01,.23-.03,.35-.04l.02,.17c.05,0,.1,0,.16-.01,.14-.01,.29-.01,.43,0,.25,.05,.5,.09,.76,.11,.11,.01,.22,.02,.33,.03s.22,.01,.33,.02h.07m.53,.01h-.16c-.09,0-.19-.01-.29-.01h0c.1,0,.2,.01,.29,.01h.15Zm-.51,0h0Zm-.05,.18h.18c-.07,0-.14,0-.21,0h-.08m.65-.17h-.16c-.09,0-.19,0-.29,0h.01c.1,0,.2,.01,.29,.01h.15Z"/><path class="cls-1" d="M20.34,17.85l.03-.16c.07-.33,.1-.66,.09-1,0-.2-.03-.41-.06-.61-.01-.08-.03-.15-.04-.23-.24-1.09-.9-2.04-1.83-2.65l-.24-.16h.29c.83-.02,1.66,.02,2.49,.1,1.03,.12,1.79,.33,2.29,.64,.39,.23,.62,.52,.67,.87,.02,.12,.02,.24,.02,.35-.03,.59-.41,1.15-1.12,1.66h-.02c-.4,.3-.93,.57-1.54,.82l-.09,.03c-.17,.07-.34,.13-.52,.2-.09,.03-.17,.06-.26,.09l-.15,.05Zm-1.48-4.64c.5,.38,.92,.86,1.22,1.41,.21,.37,.36,.77,.45,1.19,.02,.08,.03,.16,.05,.24,.04,.21,.06,.42,.06,.64,0,.3-.01,.59-.06,.89l.11-.04c.18-.06,.35-.13,.52-.2l.09-.03c.54-.21,1.05-.48,1.53-.81h.02c.65-.48,1-.99,1.03-1.52,0-.1,0-.21-.02-.31-.05-.29-.24-.53-.59-.74-.48-.29-1.22-.49-2.22-.61-.72-.08-1.45-.12-2.18-.11Z"/><path class="cls-1" d="M12.2,19.04h-.16c-.09,0-.19,0-.29,0h0c.1,0,.2,.01,.29,.01h.15Zm.33,.16l-.07-.13s-.02-.04-.03-.05c-.16-.26-.29-.54-.38-.83-.07-.21-.13-.44-.16-.66-.01-.08-.02-.15-.03-.23l-.02-.15h-.02l-.1,.08-.07,.04h0c-.16,.11-.3,.23-.44,.36-.23,.23-.34,.45-.33,.67v.03c0,.05,0,.1,.02,.15,0,.02,.01,.03,.02,.05,.04,.11,.1,.21,.18,.3,.05,.06,.11,.12,.18,.17h.02c.11,.02,.22,.02,.33,.03h-.02v-.02l-.04-.02h0l-.05-.03c-.13-.07-.24-.17-.33-.29-.05-.07-.09-.15-.11-.23,0-.02,0-.03,0-.05s0-.05-.01-.07c-.02-.17,.08-.36,.28-.56,.11-.11,.22-.21,.35-.3v.09c.01,.05,.02,.11,.03,.16,0,0,0,.01,0,.02,0,.03,.01,.06,.02,.09,.03,.12,.06,.23,.09,.33,0,.03,.02,.05,.03,.08l.04,.1s.02,.07,.04,.1c.03,.07,.05,.13,.08,.2,.01,.03,.03,.05,.04,.08s.03,.05,.04,.08c.04,.07,.08,.15,.12,.22,.02,.04,.05,.08,.07,.13l.03,.04h.23Zm-.32-.15h-.16c-.09,0-.19-.01-.29-.01h0c.1,0,.2,.01,.29,.01h.15Zm0,0h-.16c-.09,0-.19,0-.29,0h0c.1,0,.2,0,.29,0h.15Z"/><path class="cls-1" d="M20.34,17.85l.03-.16c.07-.33,.1-.66,.09-1,0-.2-.03-.41-.06-.61-.01-.08-.03-.15-.04-.23l-.03-.14,.15,.04c.2,.05,.39,.11,.57,.2,.33,.15,.52,.35,.58,.57,0,.03,.01,.06,.02,.1,.04,.3-.07,.59-.34,.87h-.01l-.02,.02c-.17,.07-.34,.13-.52,.2-.09,.03-.17,.06-.26,.09l-.15,.05Zm.23-1.89l.02,.09c.04,.21,.06,.42,.06,.64,0,.3-.01,.59-.06,.89l.11-.04c.17-.06,.34-.12,.5-.19,.22-.24,.31-.48,.28-.71,0-.02,0-.05-.01-.08-.04-.17-.21-.32-.48-.45-.13-.06-.27-.11-.41-.15Z"/><path class="cls-1" d="M24.14,19.56c-.28-.12-.61-.29-.95-.46l-.2-.1,.09-.16,.2,.1c.35,.18,.67,.35,.94,.46l-.07,.17Z"/><path class="cls-1" d="M21.38,17.47l-.12-.14c.45-.37,.97-.65,1.53-.82,.02,0,.04-.01,.05-.02l.04,.18s-.03,0-.04,.01c-.53,.17-1.03,.44-1.46,.79Z"/><path class="cls-1" d="M29.57,16.91c-.54-.03-1.15-.1-1.83-.2h-.05c-.72-.09-1.45-.18-2.18-.23v-.18c.74,.04,1.48,.13,2.2,.23h.05c.68,.09,1.28,.17,1.82,.2l-.02,.19Z"/><path class="cls-1" d="M20.79,17.68l-.14-.11c.31-.4,.58-.72,.84-1,.78-.85,1.55-1.37,2.42-1.65h.02c.87-.27,1.76-.46,2.67-.56,.89-.11,1.79-.18,2.65-.24h.09c.89-.07,1.71-.13,2.51-.24l.02,.18c-.8,.1-1.64,.16-2.52,.23h-.09c-.87,.07-1.76,.13-2.65,.24-1.04,.13-1.91,.31-2.64,.54h-.02c-.83,.28-1.58,.79-2.34,1.62-.24,.27-.51,.59-.82,.98h0Z"/><path class="cls-1" d="M20.62,16.75l-.15-.1c.16-.26,.31-.48,.45-.67,.74-1.02,1.46-1.71,2.3-2.18h.01s.02-.02,.03-.02c.64-.35,1.42-.67,2.36-.97h0c.8-.25,1.6-.45,2.56-.69h.05c.79-.21,1.53-.39,2.24-.6l.05,.17c-.71,.22-1.46,.4-2.25,.6h-.05c-.96,.25-1.76,.45-2.56,.7h0c-.93,.29-1.69,.6-2.33,.95-.01,0-.02,.01-.02,.01h-.01c-.81,.46-1.53,1.13-2.24,2.13-.13,.19-.28,.41-.44,.66h0Z"/><path class="cls-1" d="M20.08,14.71l-.16-.09c.27-.49,.6-.94,.97-1.35,.03-.03,.06-.07,.09-.1,.46-.46,.98-.87,1.54-1.21h.02c.56-.37,1.15-.68,1.76-1.01l.09-.05c.49-.26,.97-.51,1.4-.76l.09,.16c-.44,.26-.91,.5-1.4,.76l-.09,.05c-.62,.32-1.22,.64-1.77,1h-.02c-.54,.34-1.04,.73-1.49,1.18l-.09,.09c-.36,.41-.67,.85-.94,1.32Z"/><path class="cls-1" d="M17.73,12.69l-.17-.07c.07-.16,.15-.33,.24-.54,.16-.34,.35-.67,.52-.98l.06-.1c.15-.28,.32-.57,.46-.85l.16,.08c-.14,.28-.31,.57-.46,.86l-.06,.1c-.17,.31-.35,.64-.52,.98-.1,.2-.17,.37-.24,.52h0Z"/><path class="cls-1" d="M13.27,13.45c-.12-.14-.26-.27-.4-.42-.25-.25-.51-.48-.81-.74l-.08-.07c-.26-.23-.5-.45-.73-.67l.13-.12c.23,.22,.47,.44,.73,.67l.08,.07c.29,.26,.56,.5,.81,.75,.14,.14,.28,.29,.41,.43l-.13,.12Z"/><path class="cls-1" d="M22.9,16.66c-.49,.33-1.01,.6-1.55,.82l-.09,.03c-.17,.07-.34,.13-.53,.2l-.2,.07-.06,.02-.15,.05,.03-.16s0-.03,0-.04c-.19,.06-.39,.12-.61,.19-.39,.12-.81,.23-1.28,.34s-.95,.22-1.45,.3c-.23,.04-.43,.08-.6,.11-.17,.02-.38,.06-.61,.1-.52,.09-1,.15-1.44,.2-.48,.05-.93,.1-1.36,.12-.2,.01-.4,.02-.59,.02h-.02s.02,.03,.03,.04l.08,.13h.01c.11,0,.23,0,.34-.01h.17c.43-.03,.89-.08,1.36-.13,.45-.05,.92-.12,1.45-.2,.1-.01,.19-.03,.28-.04l.15-.03h.05l.12-.03c.18-.03,.38-.07,.61-.11,.49-.09,.98-.19,1.46-.3,.21-.05,.4-.1,.59-.15h.01c.24-.06,.46-.13,.68-.19,.24-.07,.46-.14,.67-.21,.02,0,.04-.01,.05-.02,.07-.02,.14-.05,.21-.07,.18-.06,.35-.13,.52-.2l.09-.03c.55-.22,1.07-.49,1.55-.82,.61-.17,1.37-.23,2.34-.19h0c-.97-.05-1.75,.01-2.36,.18h0Zm-11.25,2.37h-.04c-.11,0-.22,0-.33,0-.12,0-.24-.02-.36-.03-.23-.02-.47-.05-.7-.1-.21-.04-.41-.09-.61-.15h-.04c-.11,0-.23,.02-.35,.04-.63,.1-1.32,.31-2.14,.66l-.2,.09h0l.2,.08c1.01,.38,2.44,.56,4.25,.54h.03c.53,0,1.1-.03,1.68-.07h.1s.08-.01,.12-.02h.05c.24-.02,.48-.04,.72-.07,.14-.01,.28-.03,.4-.04l.26-.03c.12-.01,.23-.03,.34-.04h.03c.37-.05,.72-.1,1.06-.15,.18-.02,.34-.05,.46-.07s.29-.05,.44-.09c.36-.07,.72-.14,1.07-.22,.12-.02,.24-.05,.37-.08l.25-.06c.12-.03,.23-.05,.35-.09,.22-.05,.45-.11,.68-.17l.14-.04c.05-.01,.1-.03,.16-.04h.02c.55-.16,1.09-.32,1.59-.49h.03c1.71-.59,3-1.23,3.84-1.92l.16-.14h.01l-.23-.02c-1.14-.07-1.98-.01-2.66,.18h-.02l-.02,.02c-.48,.33-.99,.6-1.53,.81l-.09,.03c-.16,.07-.34,.13-.52,.2l-.08,.03-.17,.06-.05,.02c-.19,.06-.39,.12-.61,.19-.39,.12-.81,.23-1.28,.34s-.95,.22-1.45,.3c-.23,.04-.43,.08-.6,.11-.17,.02-.38,.06-.61,.1-.52,.09-1,.15-1.44,.2-.48,.05-.93,.1-1.36,.12-.2,.01-.4,.02-.59,.02h-.07s-.1,0-.14,0h-.16c-.09,0-.19,0-.29,0h-.01c.1,.01,.2,.02,.29,.02h.15s.05,.08,.07,.12l.03,.04h.22c.11,0,.23,0,.34-.01h.17c.43-.03,.88-.08,1.36-.13,.45-.05,.92-.11,1.45-.2,.1-.01,.19-.03,.28-.04l.15-.03h.05l.12-.03c.18-.03,.39-.07,.61-.11,.49-.09,.98-.19,1.46-.3,.21-.05,.4-.1,.59-.15h.01c.24-.06,.46-.13,.68-.19,.24-.07,.46-.14,.67-.21,.02,0,.04-.01,.05-.02,.07-.02,.14-.05,.21-.07,.18-.06,.35-.13,.52-.2l.09-.03c.55-.22,1.07-.49,1.55-.82,.61-.17,1.37-.23,2.34-.19h.01c-.82,.62-2.02,1.19-3.59,1.72h0l-.24,.08c-.44,.14-.89,.28-1.36,.41h-.02c-.05,.02-.1,.04-.16,.05l-.17,.04c-.22,.06-.44,.12-.65,.16-.12,.03-.24,.05-.35,.09l-.25,.06c-.13,.02-.25,.05-.37,.08-.35,.07-.71,.15-1.06,.22-.17,.03-.32,.05-.46,.08s-.28,.05-.46,.07c-.34,.05-.7,.11-1.06,.15h-.03c-.11,.02-.23,.04-.34,.05l-.26,.03c-.13,.02-.26,.03-.4,.04-.23,.02-.47,.04-.71,.06h-.04s-.08,.01-.12,.02h-.1c-.53,.04-1.04,.07-1.52,.08h-.23c-1.63,.02-2.94-.13-3.9-.44h-.01c.84-.34,1.54-.53,2.19-.6h0c-.11-.03-.22-.08-.33-.12,.12-.02,.23-.04,.35-.05l.02,.17c.05,0,.1,0,.16-.01,.14-.01,.29-.01,.43,0,.25,.05,.5,.09,.76,.11,.11,.01,.22,.02,.33,.03s.22,.01,.33,.02h.06"/><path class="cls-1" d="M11.72,16.12c-.41-.35-.85-.66-1.33-.91l-.14-.07c-.58-.27-1.2-.48-1.83-.61-.62-.14-1.28-.24-1.94-.35l-.11-.02c-.56-.09-1.08-.17-1.59-.26l.04-.18c.51,.1,1.03,.18,1.58,.26l.11,.02c.67,.1,1.33,.2,1.96,.35,.64,.14,1.27,.35,1.86,.62l.15,.07c.49,.26,.95,.57,1.37,.94l-.11,.14Z"/><path class="cls-1" d="M11.89,18.29c-.24-.19-.47-.36-.69-.51-1-.7-1.88-1.11-2.79-1.3h-.06c-.7-.15-1.51-.2-2.49-.16h0c-.89,.03-1.81,.12-2.62,.2h-.02c-.84,.08-1.63,.16-2.38,.19v-.18c.73-.03,1.52-.11,2.36-.2h.02c.81-.08,1.73-.17,2.62-.2h0c1-.04,1.83,.01,2.53,.15h.06c.93,.2,1.84,.62,2.86,1.34,.22,.16,.45,.32,.7,.52l-.11,.14Z"/><path class="cls-1" d="M12.11,19.05h-.05c-.09,0-.19,0-.29,0h0c-.21-.14-.4-.25-.58-.35-.08-.05-.16-.09-.24-.13h-.02c-.94-.51-1.78-.76-2.62-.79h-.2c-.72,0-1.55,.1-2.53,.31l-.09,.02-.07,.02c-.83,.18-1.66,.41-2.4,.62l-.1,.03-.09,.02c-.87,.24-1.69,.47-2.45,.63l-.04-.18c.75-.16,1.57-.38,2.42-.63h.01l.09-.03,.08-.02c.75-.21,1.59-.44,2.42-.62l.08-.02,.08-.02c.97-.21,1.79-.31,2.51-.32h.18c.87,.02,1.72,.25,2.66,.74l.14,.07,.04,.02c.31,.17,.65,.37,1.05,.63h0Z"/><path class="cls-1" d="M11.66,19.04h-.05c-.11,0-.22,0-.33-.01s-.22-.02-.33-.03h-.04s-.03-.02-.05-.02c-.2-.04-.4-.07-.6-.08h-.07c-.14,0-.29,0-.43,0-.05,0-.1,0-.16,.01l-.02-.17h0c.05-.02,.11-.02,.16-.03,.45-.03,.9,.01,1.33,.13,.14,.04,.27,.08,.41,.13l.05,.02h.03l.05,.03h.03Z"/><path class="cls-1" d="M3.48,21.33l-.07-.17c.53-.22,1.08-.49,1.66-.78l.04-.02c.65-.32,1.31-.65,1.98-.93l.07,.16c-.67,.28-1.33,.6-1.97,.92l-.04,.02c-.59,.29-1.13,.56-1.67,.78Z"/><path class="cls-1" d="M16.76,20.54c-.09,.01-.18,.03-.27,.04-.18,.03-.39,.06-.62,.1h-.05l-.28,.04c-.1,.01-.2,.03-.31,.04h-.02c-.16,.03-.34,.04-.52,.07h-.02l-.23,.02c-1.37,.16-2.74,.26-4.12,.28h-.22l.14-.15c.33-.35,.67-.69,1.03-1.01l.02-.02h.03c.6,0,1.26-.04,1.94-.09h.05c.24-.02,.48-.05,.71-.07,.14-.01,.28-.03,.42-.04l.24-.03c.12-.01,.23-.03,.33-.04h.04c.37-.05,.72-.1,1.06-.15,.18-.02,.33-.05,.46-.07,.13-.02,.29-.05,.46-.08,.35-.07,.71-.14,1.06-.22,.12-.03,.24-.05,.37-.08l.28-.07c.11-.02,.22-.05,.33-.08,.21-.05,.42-.1,.64-.16l.17-.04c.62-.17,1.22-.35,1.78-.54h.06c.46,.19,.9,.4,1.34,.63l.2,.1-.21,.07c-1.32,.43-2.66,.8-4.02,1.09l-.37,.08c-.13,.03-.26,.05-.39,.08l-.12,.02-.2,.04c-.07,.01-.14,.03-.21,.04l-.12,.02c-.23,.04-.43,.08-.62,.12-.09,.03-.17,.05-.26,.06h0Zm-2.11,.12h.02c.17-.02,.34-.04,.51-.07h.02c.1-.01,.21-.03,.3-.04s.2-.03,.28-.04h.05c.23-.04,.43-.07,.61-.1,.09-.02,.18-.03,.27-.04,.09-.01,.18-.03,.27-.05,.18-.03,.39-.07,.62-.12l.12-.02c.07-.01,.13-.03,.21-.04l.19-.04,.12-.03c.12-.02,.25-.05,.38-.08l.36-.08c1.36-.31,2.64-.65,3.79-1.02-.35-.18-.73-.36-1.09-.51-.55,.18-1.14,.37-1.76,.53l-.14,.04c-.23,.06-.46,.12-.68,.17-.11,.02-.22,.05-.33,.08l-.28,.07c-.13,.03-.25,.05-.37,.08-.35,.08-.72,.15-1.07,.22-.17,.03-.32,.06-.46,.08s-.28,.05-.46,.07c-.34,.06-.7,.1-1.06,.15h-.04c-.11,.02-.22,.03-.34,.05l-.24,.03c-.13,.01-.28,.03-.42,.04-.23,.02-.47,.04-.72,.06h-.05c-.67,.06-1.31,.09-1.91,.1-.29,.25-.57,.54-.84,.82,1.2-.02,2.51-.12,3.88-.28l.26-.04h0Z"/><path class="cls-1" d="M9.48,22.05l-.12-.13c.22-.2,.48-.47,.75-.76l.15-.16,.13,.13-.15,.16c-.28,.29-.53,.57-.76,.77h0Z"/><path class="cls-1" d="M20.54,17.62l1.2,.59-.08,.16-1.2-.59,.08-.16Z"/><path class="cls-1" d="M12.29,19.22h0c-.06,.06-.47,.46-.75,.75h0l-.1,.11-.13-.09h.01v-.02s.61-.65,.76-.73h.23Z"/><path class="cls-1" d="M12.36,19.21h-.53c-.07,.01-.14,0-.21,0h-.24s-.02,0-.03,0h-.05c-.4-.02-.79-.07-1.18-.14-.07-.01-.14-.03-.21-.05l-.08-.04c-.08-.02-.16-.04-.24-.07h-.02c-.11-.04-.22-.08-.33-.13,.12-.02,.23-.04,.35-.05l.02,.17c.05,0,.1,0,.16-.01,.14-.01,.29-.01,.43,0,.25,.05,.5,.08,.76,.11,.11,.01,.22,.02,.33,.03s.22,.01,.33,.02h.15c.1,0,.2,0,.29,0h.15s.05,.08,.07,.12l.03,.04h.05Z"/><path class="cls-1" d="M20.6,17.44s-.01,.09-.02,.13c0,.05-.02,.11-.03,.17v.04h0l-.05,.03c-.24,.08-.47,.15-.67,.21-.22,.06-.44,.13-.68,.19h-.01c-.19,.05-.38,.1-.59,.14-.52,.13-1.01,.22-1.46,.31-.19,.04-.38,.07-.61,.11l-.12,.02h-.05l-.15,.04c-.09,.01-.18,.03-.28,.04-.52,.08-.99,.15-1.45,.2-.47,.05-.93,.09-1.37,.12h-.16c-.11,.02-.23,.02-.34,.02h-.23l-.03-.04s-.05-.08-.07-.13c-.04-.07-.08-.15-.12-.22-.01-.03-.03-.05-.04-.08s-.03-.05-.04-.08c-.03-.07-.06-.13-.08-.2-.01-.03-.03-.07-.04-.1s-.02-.07-.04-.11l-.03-.08c-.03-.11-.06-.22-.09-.33,0-.03-.01-.06-.02-.09,0,0,0-.01,0-.02,0-.03-.01-.06-.02-.09s-.01-.05-.01-.08v-.08l-.04-.16s0-.02,0-.03c-.05-.42-.03-.84,.04-1.26,.11-.62,.34-1.2,.69-1.72,.05-.08,.11-.16,.17-.25,.21-.27,.45-.52,.72-.75,.5-.41,1.07-.7,1.69-.87,.1-.03,.19-.05,.29-.07l.22-.04c1.58-.23,3.16,.39,4.15,1.63,.03,.03,.05,.06,.08,.1s.05,.06,.07,.09,.05,.07,.08,.11c.08,.11,.15,.23,.22,.34,.21,.37,.36,.77,.45,1.19,.01,.04,.02,.07,.03,.11,.01,.05,.02,.1,.03,.15h0c0,.06,.02,.12,.02,.17,0,.04,.01,.08,.02,.12s0,.08,.01,.12,0,.08,0,.12,0,.07,0,.11h0c0,.26,0,.51-.04,.75h0Z"/></svg>