<?xml version="1.0" encoding="utf-8"?>
<!-- Generator: Adobe Illustrator 26.3.1, SVG Export Plug-In . SVG Version: 6.00 Build 0)  -->
<svg version="1.1" id="Layer_1" xmlns="http://www.w3.org/2000/svg" xmlns:xlink="http://www.w3.org/1999/xlink" x="0px" y="0px"
	 viewBox="0 0 32 32" style="enable-background:new 0 0 32 32;" xml:space="preserve">
<style type="text/css">
	.st0{fill:#FFFFFF;}
	.st1{fill:#002FA7;}
</style>
<rect class="st0" width="32" height="32"/>
<path class="st1" d="M17.1,21.4l-0.3,0h0c0,0,0,0-0.1,0h-0.1c-4.3,0.7-8,0.8-11.2,0.3c-0.9-0.1-2.1-0.4-3.2-0.8
	c-1.3-0.5-2-1.3-2.1-2.2c-0.4-2.2,3-4.1,4.1-4.6c2.9-1.6,6.5-2.7,11-3.5s8.2-0.9,11.5-0.3c2.1,0.4,5,1,5.4,3.1s-2.1,3.6-4.1,4.6
	c-2.9,1.5-6.3,2.6-10.6,3.4L17.1,21.4C17.2,21.4,17.1,21.4,17.1,21.4C17.1,21.4,17.1,21.4,17.1,21.4L17.1,21.4L17.1,21.4z
	 M16.7,21.3L16.7,21.3l0.4-0.1l0,0c0,0,0,0,0.1,0h0.1c4.3-0.8,7.8-1.9,10.6-3.4c4.3-2.3,4.1-3.9,4-4.5c-0.4-2.1-4-2.7-5.2-2.9
	c-3.2-0.5-7-0.4-11.5,0.3s-8,1.9-10.9,3.5c-4.3,2.3-4.1,3.9-4,4.5c0.4,2.1,4,2.7,5.2,2.9c3.2,0.5,6.8,0.4,11.1-0.3L16.7,21.3
	C16.6,21.3,16.7,21.3,16.7,21.3L16.7,21.3L16.7,21.3z"/>
<path class="st1" d="M16.8,20.5c-0.1,0-0.2,0-0.3,0c-0.2,0-0.4,0.1-0.6,0.1h0c-0.1,0-0.2,0-0.3,0c-0.1,0-0.2,0-0.3,0h0
	c-0.2,0-0.3,0-0.5,0.1h0l-0.2,0c-0.1,0-0.1,0-0.2,0l0,0c-1.4,0.1-2.7,0.2-3.9,0.3c-2.2,0-4-0.2-5.2-0.6c-1.2-0.4-2-1-2.3-1.9
	c0-0.1-0.1-0.3-0.1-0.4c-0.1-0.6,0-1.3,0.5-1.9c0.6-0.9,1.7-1.6,3.3-2.4c1.5-0.7,3.4-1.3,5.7-1.9c1.4-0.4,2.6-0.6,3.1-0.6
	s1.7-0.3,3.2-0.4c1.6-0.2,3.9-0.3,6-0.1c1.8,0.2,3.1,0.6,3.9,1.2c0.6,0.4,0.9,1,1,1.6c0,0.1,0,0.3,0,0.5c0,0.9-0.5,1.7-1.5,2.5
	c-1.1,0.8-2.7,1.6-4.8,2.3c-1.2,0.4-2.4,0.7-3.8,1c0,0-0.1,0-0.1,0l-0.5,0.1c-0.1,0-0.2,0-0.4,0.1l-0.1,0c-0.1,0-0.1,0-0.2,0
	s-0.1,0-0.2,0l-0.1,0c-0.2,0-0.4,0.1-0.6,0.1C16.9,20.5,16.8,20.5,16.8,20.5L16.8,20.5z M14.7,20.7L14.7,20.7c0.2,0,0.4,0,0.5-0.1h0
	c0.1,0,0.2,0,0.3,0s0.2,0,0.3,0h0c0.2,0,0.4-0.1,0.6-0.1c0.2,0,0.4,0,0.5-0.1c0.2,0,0.4-0.1,0.6-0.1l0.1,0c0.1,0,0.1,0,0.2,0l0.2,0
	l0.1,0c0.1,0,0.2,0,0.4-0.1l0.5-0.1c0,0,0.1,0,0.1,0c1.4-0.3,2.6-0.7,3.8-1c2.1-0.7,3.7-1.5,4.7-2.3c1-0.7,1.5-1.5,1.5-2.4
	c0-0.1,0-0.3,0-0.4c-0.1-0.6-0.4-1.1-1-1.5c-0.8-0.6-2.1-1-3.8-1.1c-2-0.2-4.4-0.1-5.9,0.1c-1.4,0.1-2.6,0.3-3.1,0.4
	s-1.7,0.3-3.1,0.6C10,12.8,8,13.5,6.5,14.2c-1.6,0.7-2.7,1.5-3.2,2.3c-0.4,0.6-0.5,1.1-0.4,1.8c0,0.1,0.1,0.3,0.1,0.4
	c0.3,0.8,1,1.4,2.2,1.8c1.2,0.4,3,0.6,5.2,0.6c1.2,0,2.5-0.1,3.9-0.3h0c0.1,0,0.1,0,0.2,0L14.7,20.7L14.7,20.7z"/>
<path class="st1" d="M9.6,18.8L9.6,18.8l0,0.2c0.1,0,0.1,0,0.2,0c0.1,0,0.3,0,0.4,0C10,18.9,9.8,18.8,9.6,18.8z M11.6,19L11.6,19z
	 M11.7,19L11.7,19 M29.3,13.8c-0.1-0.6-0.5-1.2-1-1.6c-0.8-0.6-2.1-1-3.9-1.2c-2.1-0.2-4.4-0.1-6,0.1c-1.4,0.1-2.6,0.3-3.2,0.4
	s-1.7,0.3-3.1,0.6c-2.2,0.6-4.2,1.2-5.7,1.9c-1.6,0.7-2.7,1.6-3.3,2.4c-0.4,0.6-0.6,1.2-0.5,1.9c0,0.1,0,0.2,0.1,0.3
	c0,0,0,0.1,0,0.1c0,0,0,0,0,0.1c0.3,0.8,1.1,1.4,2.3,1.8c1.3,0.4,3,0.6,5.2,0.6h0l0,0c0.3-0.3,0.7-0.7,1-1l0,0l0.2-0.2h-0.3
	c-1.6,0-2.9-0.1-3.9-0.4l0,0c0.8-0.3,1.5-0.5,2.2-0.6c0.6,0.2,1.1,0.3,1.7,0.3c-0.4,0-0.8-0.1-1.2-0.1l-0.2,0l-0.1,0
	c-0.1,0-0.2,0-0.2-0.1h0c-0.1,0-0.2-0.1-0.3-0.1c-0.6,0.1-1.3,0.3-2.1,0.7l-0.2,0.1h0l0.2,0.1c1,0.4,2.3,0.5,4,0.5
	c-0.3,0.3-0.6,0.5-0.8,0.8c-2.2,0-3.9-0.2-5.1-0.6c-1.1-0.4-1.8-0.9-2.2-1.7c0,0,0,0,0-0.1s0-0.1,0-0.1c0-0.1-0.1-0.2-0.1-0.3
	c-0.1-0.6,0-1.2,0.4-1.8c0.6-0.8,1.7-1.6,3.2-2.3c1.5-0.7,3.4-1.3,5.6-1.9c1.4-0.3,2.6-0.6,3.1-0.6s1.7-0.3,3.1-0.4
	c1.6-0.2,3.9-0.3,5.9-0.1c1.7,0.2,3,0.6,3.8,1.1c0.5,0.4,0.9,0.9,1,1.5c0,0.1,0,0.3,0,0.4c0,0.8-0.5,1.6-1.5,2.3
	c-1,0.8-2.6,1.6-4.7,2.2c-0.3-0.2-0.7-0.4-1.1-0.5c1.6-0.6,2.8-1.2,3.6-1.8l0.2-0.1h-0.2c-1.1-0.1-2,0-2.7,0.2h0l0,0
	c-0.5,0.3-1,0.6-1.5,0.8l-0.1,0c-0.2,0.1-0.3,0.1-0.5,0.2l-0.1,0v0c0,0,0-0.1,0-0.1c0-0.2,0-0.5,0-0.7c0,0,0-0.1,0-0.1s0-0.1,0-0.1
	s0-0.1,0-0.1s0-0.1,0-0.1c0,0,0-0.1,0-0.2s0-0.1,0-0.2c0,0,0-0.1,0-0.1c-0.1-0.4-0.2-0.8-0.5-1.2c-0.1-0.1-0.1-0.2-0.2-0.4
	c0,0,0-0.1-0.1-0.1s0-0.1-0.1-0.1s0-0.1-0.1-0.1c-0.3-0.4-0.6-0.7-1-0.9c-0.3-0.2-0.6-0.4-1-0.5c-0.7-0.2-1.5-0.3-2.2-0.2
	c-0.1,0-0.1,0-0.2,0h0c-0.7,0.1-1.4,0.5-2,0.9c-0.3,0.2-0.5,0.4-0.7,0.7l0,0c-0.1,0.2-0.3,0.4-0.4,0.6c0,0,0,0.1-0.1,0.1
	s0,0.1-0.1,0.1s0,0.1,0,0.1c-0.1,0.1-0.1,0.3-0.2,0.4c0,0,0,0.1,0,0.1s0,0.1,0,0.1l0,0.1c0,0,0,0,0,0c0,0,0,0,0,0c0,0,0,0.1,0,0.1
	l0,0v0c0,0,0,0,0,0.1s0,0,0,0.1c0,0,0,0.1,0,0.1c0,0.1,0,0.2,0,0.3c0,0,0,0.1,0,0.1s0,0.1,0,0.1c0,0.2,0,0.4,0,0.5
	c0,0.1,0,0.1,0,0.2c0,0,0,0,0,0c0,0,0,0.1,0,0.1c0,0,0,0,0,0l0,0v0l0,0c0,0,0,0,0,0c0,0,0,0,0,0.1c0,0.2,0.1,0.4,0.2,0.6
	c0.1,0.3,0.2,0.5,0.3,0.8l0,0c0,0,0.1,0.1,0.1,0.1l0,0h0.2l-0.1-0.1c0,0,0,0,0,0c-0.2-0.3-0.3-0.5-0.4-0.8c-0.1-0.2-0.1-0.4-0.2-0.7
	c0-0.1,0-0.1,0-0.2c0,0,0-0.1,0-0.1c0-0.4,0-0.8,0.1-1.1c0.1-0.7,0.4-1.3,0.8-1.9c0.1-0.1,0.1-0.1,0.2-0.2c0.2-0.2,0.3-0.3,0.5-0.5
	c0.6-0.4,1.2-0.8,1.9-0.9h0l0.1,0l0.1,0c0.7-0.1,1.4,0,2.1,0.2c1.4,0.5,2.4,1.7,2.7,3.1c0,0.1,0,0.1,0,0.2c0,0.2,0.1,0.4,0.1,0.6
	c0,0.3,0,0.6-0.1,1c0,0,0,0,0,0l0,0.2l0.1,0l0.1,0l0.2-0.1c0.2-0.1,0.4-0.1,0.5-0.2l0.1,0c0.5-0.2,1.1-0.5,1.5-0.8
	c0.6-0.2,1.4-0.2,2.4-0.2l0,0c-0.8,0.6-2,1.2-3.6,1.7l-0.2,0.1l0.2,0.1h0c0.4,0.2,0.9,0.4,1.3,0.6l0,0h0c2.1-0.7,3.7-1.5,4.8-2.3
	c1-0.8,1.5-1.6,1.5-2.5C29.4,14.1,29.4,14,29.3,13.8L29.3,13.8z M11.7,19L11.7,19 M11.6,19L11.6,19z M11.6,19.2h0.2
	C11.8,19.2,11.7,19.2,11.6,19.2L11.6,19.2 M9.6,18.8l0,0.2c0.1,0,0.1,0,0.2,0c0.1,0,0.3,0,0.4,0C10,18.9,9.8,18.8,9.6,18.8L9.6,18.8
	L9.6,18.8z M9.6,18.8L9.6,18.8l0,0.2c0.1,0,0.1,0,0.2,0c0.1,0,0.3,0,0.4,0C10,18.9,9.8,18.8,9.6,18.8C9.6,18.8,9.6,18.8,9.6,18.8z
	 M11.6,19L11.6,19z M11.7,19L11.7,19 M11.7,19L11.7,19 M11.6,19L11.6,19z M9.6,18.7L9.6,18.7l0,0.2c0.1,0,0.1,0,0.2,0
	c0.1,0,0.3,0,0.4,0C10,18.9,9.8,18.8,9.6,18.7L9.6,18.7L9.6,18.7z"/>
<path class="st1" d="M9.6,18.8L9.6,18.8l0,0.2c0.1,0,0.1,0,0.2,0c0.1,0,0.3,0,0.4,0C10,18.9,9.8,18.8,9.6,18.8z M11.6,19L11.6,19z
	 M11.7,19L11.7,19 M29.3,13.8c-0.1-0.6-0.5-1.2-1-1.6c-0.8-0.6-2.1-1-3.9-1.2c-2.1-0.2-4.4-0.1-6,0.1c-1.4,0.1-2.6,0.3-3.2,0.4
	s-1.7,0.3-3.1,0.6c-2.2,0.6-4.2,1.2-5.7,1.9c-1.6,0.7-2.7,1.6-3.3,2.4c-0.4,0.6-0.6,1.2-0.5,1.9c0,0.1,0,0.2,0.1,0.3
	c0,0,0,0.1,0,0.1c0,0,0,0,0,0.1c0.3,0.8,1.1,1.4,2.3,1.8c1.3,0.4,3,0.6,5.2,0.6h0l0,0c0.3-0.3,0.7-0.7,1-1l0,0l0.2-0.2h-0.3
	c-1.6,0-2.9-0.1-3.9-0.4l0,0c0.8-0.3,1.5-0.5,2.2-0.6c0.6,0.2,1.1,0.3,1.7,0.3c-0.4,0-0.8-0.1-1.2-0.1l-0.2,0l-0.1,0
	c-0.1,0-0.2,0-0.2-0.1h0c-0.1,0-0.2-0.1-0.3-0.1c-0.6,0.1-1.3,0.3-2.1,0.7l-0.2,0.1h0l0.2,0.1c1,0.4,2.3,0.5,4,0.5
	c-0.3,0.3-0.6,0.5-0.8,0.8c-2.2,0-3.9-0.2-5.1-0.6c-1.1-0.4-1.8-0.9-2.2-1.7c0,0,0,0,0-0.1s0-0.1,0-0.1c0-0.1-0.1-0.2-0.1-0.3
	c-0.1-0.6,0-1.2,0.4-1.8c0.6-0.8,1.7-1.6,3.2-2.3c1.5-0.7,3.4-1.3,5.6-1.9c1.4-0.3,2.6-0.6,3.1-0.6s1.7-0.3,3.1-0.4
	c1.6-0.2,3.9-0.3,5.9-0.1c1.7,0.2,3,0.6,3.8,1.1c0.5,0.4,0.9,0.9,1,1.5c0,0.1,0,0.3,0,0.4c0,0.8-0.5,1.6-1.5,2.3
	c-1,0.8-2.6,1.6-4.7,2.2c-0.3-0.2-0.7-0.4-1.1-0.5c1.6-0.6,2.8-1.2,3.6-1.8l0.2-0.1h-0.2c-1.1-0.1-2,0-2.7,0.2h0l0,0
	c-0.5,0.3-1,0.6-1.5,0.8l-0.1,0c-0.2,0.1-0.3,0.1-0.5,0.2l-0.1,0v0c0,0,0-0.1,0-0.1c0-0.2,0-0.5,0-0.7c0,0,0-0.1,0-0.1s0-0.1,0-0.1
	s0-0.1,0-0.1s0-0.1,0-0.1c0,0,0-0.1,0-0.2s0-0.1,0-0.2c0,0,0-0.1,0-0.1c-0.1-0.4-0.2-0.8-0.5-1.2c-0.1-0.1-0.1-0.2-0.2-0.4
	c0,0,0-0.1-0.1-0.1s0-0.1-0.1-0.1s0-0.1-0.1-0.1c-0.3-0.4-0.6-0.7-1-0.9c-0.3-0.2-0.6-0.4-1-0.5c-0.7-0.2-1.5-0.3-2.2-0.2
	c-0.1,0-0.1,0-0.2,0h0c-0.7,0.1-1.4,0.5-2,0.9c-0.3,0.2-0.5,0.4-0.7,0.7l0,0c-0.1,0.2-0.3,0.4-0.4,0.6c0,0,0,0.1-0.1,0.1
	s0,0.1-0.1,0.1s0,0.1,0,0.1c-0.1,0.1-0.1,0.3-0.2,0.4c0,0,0,0.1,0,0.1s0,0.1,0,0.1l0,0.1c0,0,0,0,0,0c0,0,0,0,0,0c0,0,0,0.1,0,0.1
	l0,0v0c0,0,0,0,0,0.1s0,0,0,0.1c0,0,0,0.1,0,0.1c0,0.1,0,0.2,0,0.3c0,0,0,0.1,0,0.1s0,0.1,0,0.1c0,0.2,0,0.4,0,0.5
	c0,0.1,0,0.1,0,0.2c0,0,0,0,0,0c0,0,0,0.1,0,0.1c0,0,0,0,0,0l0,0v0l0,0c0,0,0,0,0,0c0,0,0,0,0,0.1c0,0.2,0.1,0.4,0.2,0.6
	c0.1,0.3,0.2,0.5,0.3,0.8l0,0c0,0,0.1,0.1,0.1,0.1l0,0h0.2l-0.1-0.1c0,0,0,0,0,0c-0.2-0.3-0.3-0.5-0.4-0.8c-0.1-0.2-0.1-0.4-0.2-0.7
	c0-0.1,0-0.1,0-0.2c0,0,0-0.1,0-0.1c0-0.4,0-0.8,0.1-1.1c0.1-0.7,0.4-1.3,0.8-1.9c0.1-0.1,0.1-0.1,0.2-0.2c0.2-0.2,0.3-0.3,0.5-0.5
	c0.6-0.4,1.2-0.8,1.9-0.9h0l0.1,0l0.1,0c0.7-0.1,1.4,0,2.1,0.2c1.4,0.5,2.4,1.7,2.7,3.1c0,0.1,0,0.1,0,0.2c0,0.2,0.1,0.4,0.1,0.6
	c0,0.3,0,0.6-0.1,1c0,0,0,0,0,0l0,0.2l0.1,0l0.1,0l0.2-0.1c0.2-0.1,0.4-0.1,0.5-0.2l0.1,0c0.5-0.2,1.1-0.5,1.5-0.8
	c0.6-0.2,1.4-0.2,2.4-0.2l0,0c-0.8,0.6-2,1.2-3.6,1.7l-0.2,0.1l0.2,0.1h0c0.4,0.2,0.9,0.4,1.3,0.6l0,0h0c2.1-0.7,3.7-1.5,4.8-2.3
	c1-0.8,1.5-1.6,1.5-2.5C29.4,14.1,29.4,14,29.3,13.8L29.3,13.8z M11.7,19L11.7,19 M11.6,19L11.6,19z M11.6,19.2h0.2
	C11.8,19.2,11.7,19.2,11.6,19.2L11.6,19.2 M9.6,18.8l0,0.2c0.1,0,0.1,0,0.2,0c0.1,0,0.3,0,0.4,0C10,18.9,9.8,18.8,9.6,18.8L9.6,18.8
	L9.6,18.8z M9.6,18.8L9.6,18.8l0,0.2c0.1,0,0.1,0,0.2,0c0.1,0,0.3,0,0.4,0C10,18.9,9.8,18.8,9.6,18.8C9.6,18.8,9.6,18.8,9.6,18.8z
	 M11.6,19L11.6,19z M11.6,19L11.6,19z M9.6,18.8L9.6,18.8l0,0.2c0.1,0,0.1,0,0.2,0c0.1,0,0.3,0,0.4,0C10,18.9,9.8,18.8,9.6,18.8
	L9.6,18.8L9.6,18.8z"/>
<path class="st1" d="M11.6,19L11.6,19c-0.1,0-0.3,0-0.4,0c-0.1,0-0.3,0-0.4,0c-0.2,0-0.4,0-0.6-0.1c-0.2,0-0.4-0.1-0.6-0.2h0
	c-0.1,0-0.2,0-0.4,0c-0.6,0.1-1.3,0.3-2.1,0.6c-0.8-0.3-1.3-0.8-1.5-1.4c0,0,0-0.1,0-0.1s0-0.1,0-0.1s0-0.1,0-0.1
	c-0.1-0.5,0.1-1,0.4-1.5l0,0c0.5-0.6,1.3-1.2,2.5-1.8c0.7-0.3,1.3-0.6,2-0.8c0.8-0.2,1.6-0.5,2.5-0.7c0.4-0.1,0.8-0.2,1.1-0.2
	c0,0,0,0,0.1,0c-0.3,0.1-0.6,0.3-0.8,0.5c-0.3,0.2-0.5,0.5-0.7,0.7v0c-0.1,0.1-0.1,0.1-0.2,0.2c-0.2,0.3-0.4,0.7-0.5,1.1
	c0,0,0,0.1,0,0.1s0,0.1,0,0.1c0,0,0,0,0,0.1c0,0,0,0,0,0v0c0,0,0,0,0,0c0,0,0,0.1,0,0.1l0,0v0c0,0,0,0,0,0.1s0,0,0,0.1v0
	c0,0,0,0.1,0,0.1c0,0.1,0,0.2,0,0.3c0,0,0,0.1,0,0.1c0,0,0,0.1,0,0.1c0,0.2,0,0.4,0,0.5c0,0.1,0,0.1,0,0.2c0,0,0,0,0,0
	c0,0,0,0.1,0,0.1c0,0,0,0,0,0v0.1c0,0,0,0.1,0,0.2c0,0,0,0,0,0c0,0,0,0.1,0,0.1c0,0.1,0.1,0.2,0.1,0.3c0,0,0,0,0,0.1l0,0.1
	c0,0,0,0.1,0,0.1c0,0.1,0.1,0.1,0.1,0.2c0,0,0,0,0,0.1s0,0,0,0.1c0,0.1,0.1,0.1,0.1,0.2c0,0,0.1,0.1,0.1,0.1l0,0h0.2l-0.1-0.1
	c0,0,0,0,0,0c-0.2-0.3-0.3-0.5-0.4-0.8c-0.1-0.2-0.1-0.4-0.2-0.7c0-0.1,0-0.1,0-0.2c0,0,0-0.1,0-0.1c0-0.4,0-0.7,0.1-1.1
	c0.1-0.7,0.4-1.3,0.8-1.9c0.1-0.1,0.1-0.1,0.1-0.2c0.6-0.7,1.5-1.2,2.5-1.4l0,0l0-0.2l0,0L15,12.5c-0.5,0.1-1.2,0.2-2,0.4
	c-1.8,0.4-3.3,0.9-4.5,1.5c-1.2,0.6-2.1,1.2-2.6,1.8l0,0c-0.4,0.5-0.6,1.1-0.4,1.6c0,0,0,0.1,0,0.1s0,0.1,0,0.1s0,0,0,0.1
	c0.2,0.6,0.7,1.1,1.5,1.4h0c0.1,0,0.1,0.1,0.2,0.1h0.1l0.2-0.1h0C8.3,19.2,9,19,9.6,18.9l0,0c0.1,0,0.2,0,0.2,0.1
	c-0.1,0-0.2,0-0.2-0.1h0c-0.1,0-0.2-0.1-0.3-0.1c0.1,0,0.2,0,0.4,0l0,0.2c0.1,0,0.1,0,0.2,0c0.1,0,0.3,0,0.4,0
	c0.2,0,0.5,0.1,0.8,0.1c0.1,0,0.2,0,0.3,0S11.5,19.1,11.6,19l0.2,0c0.1,0,0.2,0,0.3,0h0c-0.1,0-0.2,0-0.3,0L11.6,19 M11.7,19.3h0.2
	C11.8,19.3,11.7,19.3,11.7,19.3L11.7,19.3 M11.7,19.1L11.7,19.1 M12.2,19.1h-0.2c-0.1,0-0.2,0-0.3,0l0,0c0.1,0,0.2,0,0.3,0H12.2
	L12.2,19.1z"/>
<path class="st1" d="M20.3,17.9l0-0.2c0.1-0.3,0.1-0.7,0.1-1c0-0.2,0-0.4-0.1-0.6c0-0.1,0-0.1,0-0.2c-0.2-1.1-0.9-2-1.8-2.6
	c-0.3-0.2-0.6-0.3-0.9-0.5c-0.7-0.2-1.4-0.3-2.1-0.2l0-0.2c0.4-0.1,1.3-0.2,2.4-0.3c1.2-0.1,3.1-0.2,4.7-0.1h0
	c1.4,0.1,2.4,0.4,3.1,0.9l0,0c0.5,0.4,0.9,0.8,1,1.4c0,0.1,0,0.2,0,0.2c0,0.7-0.4,1.4-1.1,2l0,0h0c-1.1-0.1-1.9,0-2.6,0.2
	c-0.5,0.3-1,0.6-1.5,0.8l-0.1,0c-0.2,0.1-0.3,0.1-0.5,0.2c-0.1,0-0.2,0.1-0.3,0.1L20.3,17.9L20.3,17.9z M16.8,12.3
	c0.3,0,0.6,0.1,0.9,0.2c0.3,0.1,0.7,0.3,1,0.5c0.6,0.4,1.1,0.9,1.5,1.6c0.2,0.4,0.4,0.8,0.5,1.2c0,0.1,0,0.2,0,0.2
	c0,0.2,0.1,0.4,0.1,0.6c0,0.3,0,0.6-0.1,0.9l0.1,0c0.2-0.1,0.4-0.1,0.5-0.2l0.1,0c0.5-0.2,1-0.5,1.5-0.8h0l0,0
	c0.7-0.2,1.5-0.2,2.6-0.2c0.7-0.6,1.1-1.2,1-1.9c0-0.1,0-0.1,0-0.2c-0.1-0.5-0.4-0.9-0.9-1.2l0,0c-0.7-0.4-1.7-0.7-3-0.8h0
	c-1.6-0.1-3.4,0-4.7,0.1C17.5,12.3,17.1,12.3,16.8,12.3L16.8,12.3z"/>
<path class="st1" d="M11.7,19L11.7,19z M12.2,19H12c-0.1,0-0.2,0-0.3,0l0,0c0.1,0,0.2,0,0.3,0L12.2,19L12.2,19z M11.6,19L11.6,19
	c-0.1,0-0.3,0-0.4,0c-0.1,0-0.2,0-0.4,0c-0.2,0-0.5,0-0.7-0.1c-0.2,0-0.4-0.1-0.6-0.1h0c-0.6-0.2-1.1-0.5-1.3-1c0,0,0-0.1-0.1-0.1
	c0,0,0,0,0-0.1c0-0.1-0.1-0.1-0.1-0.2c-0.1-0.3,0-0.6,0.3-0.9c0.2-0.2,0.5-0.5,0.7-0.6c0.4-0.2,0.8-0.5,1.1-0.7
	c0.7-0.3,1.4-0.6,2.1-0.8h0c-0.1,0.1-0.1,0.2-0.2,0.3c0,0,0,0.1-0.1,0.1s0,0.1-0.1,0.1s0,0.1,0,0.1c-0.1,0.1-0.1,0.3-0.2,0.4
	c0,0,0,0.1,0,0.1s0,0.1,0,0.1s0,0.1,0,0.1c0,0,0,0,0,0c0,0,0,0,0,0c0,0,0,0.1,0,0.1l0,0v0c0,0,0,0,0,0.1s0,0.1,0,0.1s0,0.1,0,0.1
	c0,0.1,0,0.2,0,0.3c0,0,0,0.1,0,0.1s0,0.1,0,0.1c0,0.2,0,0.4,0,0.5c0,0.1,0,0.1,0,0.2c0,0,0,0,0,0c0,0,0,0.1,0,0.1c0,0,0,0,0,0v0.1
	c0,0,0,0.1,0,0.2c0,0,0,0,0,0c0,0,0,0.1,0,0.1c0,0.1,0.1,0.2,0.1,0.3c0,0,0,0,0,0.1l0,0.1c0,0,0,0.1,0,0.1c0,0.1,0.1,0.1,0.1,0.2
	c0,0,0,0,0,0.1s0,0,0,0.1c0,0.1,0.1,0.1,0.1,0.2c0,0,0.1,0.1,0.1,0.1l0,0h0.2l-0.1-0.1c0,0,0,0,0,0c-0.2-0.3-0.3-0.5-0.4-0.8
	c-0.1-0.2-0.1-0.4-0.2-0.7c0-0.1,0-0.1,0-0.2c-0.1-0.4,0-0.8,0-1.2c0.1-0.7,0.4-1.3,0.8-1.9l0.1-0.2l0-0.1h0L12.6,14h-0.1
	c0,0,0,0,0,0c-0.4,0.1-0.8,0.3-1.2,0.4c-0.4,0.1-0.8,0.3-1.1,0.5c-0.9,0.4-1.6,0.9-1.9,1.4C8,16.7,7.9,17,8,17.4c0,0.1,0,0.1,0,0.2
	c0,0,0,0.1,0.1,0.1c0,0,0,0,0,0c0.2,0.4,0.6,0.8,1.1,1h0c0.1,0,0.2,0,0.4,0l0,0.2c0.1,0,0.1,0,0.2,0c0.1,0,0.3,0,0.4,0
	c0.2,0,0.5,0.1,0.8,0.1c0.1,0,0.2,0,0.3,0S11.5,19,11.6,19L11.6,19 M12.2,19.1h-0.2c-0.1,0-0.2,0-0.3,0l0,0c0.1,0,0.2,0,0.3,0H12.2
	L12.2,19.1z M11.7,19.1L11.7,19.1z M11.7,19.2h0.2C11.8,19.2,11.7,19.2,11.7,19.2h-0.1 M12.2,19.1H12c-0.1,0-0.2,0-0.3,0h0
	c0.1,0,0.2,0,0.3,0L12.2,19.1L12.2,19.1z"/>
<path class="st1" d="M20.3,17.9l0-0.2c0.1-0.3,0.1-0.7,0.1-1c0-0.2,0-0.4-0.1-0.6c0-0.1,0-0.1,0-0.2c-0.2-1.1-0.9-2-1.8-2.6L18.3,13
	h0.3c0.8,0,1.7,0,2.5,0.1c1,0.1,1.8,0.3,2.3,0.6c0.4,0.2,0.6,0.5,0.7,0.9c0,0.1,0,0.2,0,0.4c0,0.6-0.4,1.1-1.1,1.7h0
	c-0.4,0.3-0.9,0.6-1.5,0.8l-0.1,0c-0.2,0.1-0.3,0.1-0.5,0.2c-0.1,0-0.2,0.1-0.3,0.1L20.3,17.9L20.3,17.9z M18.9,13.2
	c0.5,0.4,0.9,0.9,1.2,1.4c0.2,0.4,0.4,0.8,0.5,1.2c0,0.1,0,0.2,0,0.2c0,0.2,0.1,0.4,0.1,0.6c0,0.3,0,0.6-0.1,0.9l0.1,0
	c0.2-0.1,0.4-0.1,0.5-0.2l0.1,0c0.5-0.2,1-0.5,1.5-0.8h0c0.6-0.5,1-1,1-1.5c0-0.1,0-0.2,0-0.3c0-0.3-0.2-0.5-0.6-0.7
	c-0.5-0.3-1.2-0.5-2.2-0.6C20.3,13.2,19.6,13.2,18.9,13.2L18.9,13.2z"/>
<path class="st1" d="M12.2,19H12c-0.1,0-0.2,0-0.3,0l0,0c0.1,0,0.2,0,0.3,0L12.2,19L12.2,19z M12.5,19.2l-0.1-0.1c0,0,0,0,0,0
	c-0.2-0.3-0.3-0.5-0.4-0.8c-0.1-0.2-0.1-0.4-0.2-0.7c0-0.1,0-0.1,0-0.2l0-0.1h0l-0.1,0.1l-0.1,0l0,0c-0.2,0.1-0.3,0.2-0.4,0.4
	c-0.2,0.2-0.3,0.5-0.3,0.7v0c0,0,0,0.1,0,0.1c0,0,0,0,0,0c0,0.1,0.1,0.2,0.2,0.3c0.1,0.1,0.1,0.1,0.2,0.2h0c0.1,0,0.2,0,0.3,0h0v0
	l0,0l0,0l-0.1,0c-0.1-0.1-0.2-0.2-0.3-0.3c-0.1-0.1-0.1-0.1-0.1-0.2c0,0,0,0,0,0s0,0,0-0.1c0-0.2,0.1-0.4,0.3-0.6
	c0.1-0.1,0.2-0.2,0.4-0.3v0.1c0,0,0,0.1,0,0.2c0,0,0,0,0,0c0,0,0,0.1,0,0.1c0,0.1,0.1,0.2,0.1,0.3c0,0,0,0,0,0.1l0,0.1
	c0,0,0,0.1,0,0.1c0,0.1,0.1,0.1,0.1,0.2c0,0,0,0,0,0.1s0,0,0,0.1c0,0.1,0.1,0.1,0.1,0.2c0,0,0.1,0.1,0.1,0.1l0,0L12.5,19.2
	L12.5,19.2z M12.2,19.1h-0.2c-0.1,0-0.2,0-0.3,0l0,0c0.1,0,0.2,0,0.3,0H12.2L12.2,19.1z M12.2,19.1h-0.2c-0.1,0-0.2,0-0.3,0l0,0
	c0.1,0,0.2,0,0.3,0H12.2L12.2,19.1z"/>
<path class="st1" d="M20.3,17.9l0-0.2c0.1-0.3,0.1-0.7,0.1-1c0-0.2,0-0.4-0.1-0.6c0-0.1,0-0.1,0-0.2l0-0.1l0.1,0
	c0.2,0.1,0.4,0.1,0.6,0.2c0.3,0.2,0.5,0.3,0.6,0.6c0,0,0,0.1,0,0.1c0,0.3-0.1,0.6-0.3,0.9h0l0,0c-0.2,0.1-0.3,0.1-0.5,0.2
	c-0.1,0-0.2,0.1-0.3,0.1L20.3,17.9L20.3,17.9z M20.6,16L20.6,16c0.1,0.3,0.1,0.5,0.1,0.7c0,0.3,0,0.6-0.1,0.9l0.1,0
	c0.2-0.1,0.3-0.1,0.5-0.2c0.2-0.2,0.3-0.5,0.3-0.7c0,0,0,0,0-0.1c0-0.2-0.2-0.3-0.5-0.5C20.9,16,20.7,16,20.6,16L20.6,16z"/>
<path class="st1" d="M24.1,19.6c-0.3-0.1-0.6-0.3-1-0.5L23,19l0.1-0.2l0.2,0.1c0.4,0.2,0.7,0.4,0.9,0.5L24.1,19.6L24.1,19.6z"/>
<path class="st1" d="M21.4,17.5l-0.1-0.1c0.5-0.4,1-0.6,1.5-0.8c0,0,0,0,0,0l0,0.2c0,0,0,0,0,0C22.3,16.9,21.8,17.1,21.4,17.5z"/>
<path class="st1" d="M29.6,16.9c-0.5,0-1.1-0.1-1.8-0.2h0c-0.7-0.1-1.5-0.2-2.2-0.2v-0.2c0.7,0,1.5,0.1,2.2,0.2h0
	c0.7,0.1,1.3,0.2,1.8,0.2L29.6,16.9L29.6,16.9z"/>
<path class="st1" d="M20.8,17.7l-0.1-0.1c0.3-0.4,0.6-0.7,0.8-1c0.8-0.9,1.5-1.4,2.4-1.6h0c0.9-0.3,1.8-0.5,2.7-0.6
	c0.9-0.1,1.8-0.2,2.6-0.2h0.1c0.9-0.1,1.7-0.1,2.5-0.2l0,0.2c-0.8,0.1-1.6,0.2-2.5,0.2h-0.1c-0.9,0.1-1.8,0.1-2.6,0.2
	c-1,0.1-1.9,0.3-2.6,0.5h0c-0.8,0.3-1.6,0.8-2.3,1.6C21.4,17,21.1,17.3,20.8,17.7L20.8,17.7L20.8,17.7z"/>
<path class="st1" d="M20.6,16.8l-0.1-0.1c0.2-0.3,0.3-0.5,0.5-0.7c0.7-1,1.5-1.7,2.3-2.2h0c0,0,0,0,0,0c0.6-0.4,1.4-0.7,2.4-1l0,0
	c0.8-0.2,1.6-0.4,2.6-0.7h0c0.8-0.2,1.5-0.4,2.2-0.6l0,0.2c-0.7,0.2-1.5,0.4-2.2,0.6h0c-1,0.2-1.8,0.4-2.6,0.7l0,0
	c-0.9,0.3-1.7,0.6-2.3,0.9c0,0,0,0,0,0h0c-0.8,0.5-1.5,1.1-2.2,2.1C20.9,16.3,20.8,16.5,20.6,16.8L20.6,16.8L20.6,16.8z"/>
<path class="st1" d="M20.1,14.7l-0.2-0.1c0.3-0.5,0.6-0.9,1-1.4c0,0,0.1-0.1,0.1-0.1c0.5-0.5,1-0.9,1.5-1.2h0c0.6-0.4,1.1-0.7,1.8-1
	l0.1-0.1c0.5-0.3,1-0.5,1.4-0.8l0.1,0.2c-0.4,0.3-0.9,0.5-1.4,0.8l-0.1,0.1c-0.6,0.3-1.2,0.6-1.8,1h0c-0.5,0.3-1,0.7-1.5,1.2
	L21,13.4C20.7,13.8,20.4,14.2,20.1,14.7L20.1,14.7z"/>
<path class="st1" d="M17.7,12.7l-0.2-0.1c0.1-0.2,0.1-0.3,0.2-0.5c0.2-0.3,0.4-0.7,0.5-1l0.1-0.1c0.1-0.3,0.3-0.6,0.5-0.9l0.2,0.1
	c-0.1,0.3-0.3,0.6-0.5,0.9l-0.1,0.1c-0.2,0.3-0.4,0.6-0.5,1C17.9,12.4,17.8,12.5,17.7,12.7L17.7,12.7L17.7,12.7z"/>
<path class="st1" d="M13.3,13.4c-0.1-0.1-0.3-0.3-0.4-0.4c-0.2-0.2-0.5-0.5-0.8-0.7L12,12.2c-0.3-0.2-0.5-0.4-0.7-0.7l0.1-0.1
	c0.2,0.2,0.5,0.4,0.7,0.7l0.1,0.1c0.3,0.3,0.6,0.5,0.8,0.8c0.1,0.1,0.3,0.3,0.4,0.4L13.3,13.4L13.3,13.4z"/>
<path class="st1" d="M22.9,16.7c-0.5,0.3-1,0.6-1.5,0.8l-0.1,0c-0.2,0.1-0.3,0.1-0.5,0.2l-0.2,0.1l-0.1,0l-0.1,0l0-0.2c0,0,0,0,0,0
	c-0.2,0.1-0.4,0.1-0.6,0.2c-0.4,0.1-0.8,0.2-1.3,0.3s-1,0.2-1.5,0.3c-0.2,0-0.4,0.1-0.6,0.1c-0.2,0-0.4,0.1-0.6,0.1
	c-0.5,0.1-1,0.1-1.4,0.2c-0.5,0-0.9,0.1-1.4,0.1c-0.2,0-0.4,0-0.6,0h0c0,0,0,0,0,0l0.1,0.1h0c0.1,0,0.2,0,0.3,0H13
	c0.4,0,0.9-0.1,1.4-0.1c0.4,0,0.9-0.1,1.4-0.2c0.1,0,0.2,0,0.3,0l0.1,0h0l0.1,0c0.2,0,0.4-0.1,0.6-0.1c0.5-0.1,1-0.2,1.5-0.3
	c0.2,0,0.4-0.1,0.6-0.1h0c0.2-0.1,0.5-0.1,0.7-0.2c0.2-0.1,0.5-0.1,0.7-0.2c0,0,0,0,0,0c0.1,0,0.1,0,0.2-0.1
	c0.2-0.1,0.4-0.1,0.5-0.2l0.1,0C21.9,17.3,22.4,17,22.9,16.7c0.6-0.2,1.3-0.2,2.3-0.2l0,0C24.2,16.4,23.5,16.5,22.9,16.7L22.9,16.7
	L22.9,16.7z M11.6,19L11.6,19c-0.1,0-0.3,0-0.4,0c-0.1,0-0.2,0-0.4,0c-0.2,0-0.5,0-0.7-0.1c-0.2,0-0.4-0.1-0.6-0.1h0
	c-0.1,0-0.2,0-0.4,0c-0.6,0.1-1.3,0.3-2.1,0.7l-0.2,0.1l0,0l0.2,0.1c1,0.4,2.4,0.6,4.2,0.5h0c0.5,0,1.1,0,1.7-0.1h0.1
	c0,0,0.1,0,0.1,0h0.1c0.2,0,0.5,0,0.7-0.1c0.1,0,0.3,0,0.4,0l0.3,0c0.1,0,0.2,0,0.3,0h0c0.4,0,0.7-0.1,1.1-0.1c0.2,0,0.3,0,0.5-0.1
	s0.3,0,0.4-0.1c0.4-0.1,0.7-0.1,1.1-0.2c0.1,0,0.2,0,0.4-0.1l0.2-0.1c0.1,0,0.2,0,0.4-0.1c0.2,0,0.5-0.1,0.7-0.2l0.1,0
	c0,0,0.1,0,0.2,0h0c0.5-0.2,1.1-0.3,1.6-0.5h0c1.7-0.6,3-1.2,3.8-1.9l0.2-0.1h0l-0.2,0c-1.1-0.1-2,0-2.7,0.2h0l0,0
	c-0.5,0.3-1,0.6-1.5,0.8l-0.1,0c-0.2,0.1-0.3,0.1-0.5,0.2l-0.1,0l-0.2,0.1l0,0c-0.2,0.1-0.4,0.1-0.6,0.2c-0.4,0.1-0.8,0.2-1.3,0.3
	s-1,0.2-1.5,0.3c-0.2,0-0.4,0.1-0.6,0.1c-0.2,0-0.4,0.1-0.6,0.1c-0.5,0.1-1,0.1-1.4,0.2C13.9,19,13.4,19,13,19c-0.2,0-0.4,0-0.6,0
	h-0.1c0,0-0.1,0-0.1,0H12C11.9,19,11.8,19,11.6,19L11.6,19c0.2,0,0.3,0,0.4,0h0.1c0,0,0.1,0.1,0.1,0.1l0,0h0.2c0.1,0,0.2,0,0.3,0H13
	c0.4,0,0.9-0.1,1.4-0.1c0.4,0,0.9-0.1,1.4-0.2c0.1,0,0.2,0,0.3,0l0.1,0h0l0.1,0c0.2,0,0.4-0.1,0.6-0.1c0.5-0.1,1-0.2,1.5-0.3
	c0.2,0,0.4-0.1,0.6-0.1h0c0.2-0.1,0.5-0.1,0.7-0.2c0.2-0.1,0.5-0.1,0.7-0.2c0,0,0,0,0,0c0.1,0,0.1,0,0.2-0.1
	c0.2-0.1,0.4-0.1,0.5-0.2l0.1,0c0.5-0.2,1.1-0.5,1.5-0.8c0.6-0.2,1.4-0.2,2.3-0.2h0c-0.8,0.6-2,1.2-3.6,1.7l0,0l-0.2,0.1
	c-0.4,0.1-0.9,0.3-1.4,0.4h0c0,0-0.1,0-0.2,0l-0.2,0c-0.2,0.1-0.4,0.1-0.6,0.2c-0.1,0-0.2,0-0.4,0.1l-0.2,0.1c-0.1,0-0.2,0-0.4,0.1
	c-0.4,0.1-0.7,0.1-1.1,0.2c-0.2,0-0.3,0-0.5,0.1s-0.3,0-0.5,0.1c-0.3,0-0.7,0.1-1.1,0.1h0c-0.1,0-0.2,0-0.3,0l-0.3,0
	c-0.1,0-0.3,0-0.4,0c-0.2,0-0.5,0-0.7,0.1h0c0,0-0.1,0-0.1,0H13c-0.5,0-1,0.1-1.5,0.1h-0.2c-1.6,0-2.9-0.1-3.9-0.4h0
	c0.8-0.3,1.5-0.5,2.2-0.6l0,0c-0.1,0-0.2-0.1-0.3-0.1c0.1,0,0.2,0,0.4,0l0,0.2c0.1,0,0.1,0,0.2,0c0.1,0,0.3,0,0.4,0
	c0.2,0,0.5,0.1,0.8,0.1c0.1,0,0.2,0,0.3,0S11.5,19.1,11.6,19L11.6,19"/>
<path class="st1" d="M11.7,16.1c-0.4-0.4-0.9-0.7-1.3-0.9l-0.1-0.1c-0.6-0.3-1.2-0.5-1.8-0.6c-0.6-0.1-1.3-0.2-1.9-0.4l-0.1,0
	c-0.6-0.1-1.1-0.2-1.6-0.3l0-0.2c0.5,0.1,1,0.2,1.6,0.3l0.1,0c0.7,0.1,1.3,0.2,2,0.4c0.6,0.1,1.3,0.4,1.9,0.6l0.1,0.1
	c0.5,0.3,0.9,0.6,1.4,0.9L11.7,16.1L11.7,16.1z"/>
<path class="st1" d="M11.9,18.3c-0.2-0.2-0.5-0.4-0.7-0.5c-1-0.7-1.9-1.1-2.8-1.3H8.4c-0.7-0.1-1.5-0.2-2.5-0.2l0,0
	c-0.9,0-1.8,0.1-2.6,0.2h0c-0.8,0.1-1.6,0.2-2.4,0.2v-0.2c0.7,0,1.5-0.1,2.4-0.2h0C4,16.3,5,16.2,5.8,16.1l0,0c1,0,1.8,0,2.5,0.1
	h0.1c0.9,0.2,1.8,0.6,2.9,1.3c0.2,0.2,0.4,0.3,0.7,0.5L11.9,18.3L11.9,18.3z"/>
<path class="st1" d="M12.1,19L12.1,19c-0.1,0-0.2,0-0.3,0l0,0c-0.2-0.1-0.4-0.2-0.6-0.4c-0.1,0-0.2-0.1-0.2-0.1h0
	c-0.9-0.5-1.8-0.8-2.6-0.8H8.1c-0.7,0-1.6,0.1-2.5,0.3l-0.1,0l-0.1,0c-0.8,0.2-1.7,0.4-2.4,0.6l-0.1,0l-0.1,0
	C2,19,1.1,19.3,0.4,19.4l0-0.2c0.8-0.2,1.6-0.4,2.4-0.6h0l0.1,0l0.1,0c0.8-0.2,1.6-0.4,2.4-0.6l0.1,0l0.1,0c1-0.2,1.8-0.3,2.5-0.3
	h0.2c0.9,0,1.7,0.2,2.7,0.7l0.1,0.1l0,0C11.4,18.6,11.7,18.8,12.1,19L12.1,19L12.1,19z"/>
<path class="st1" d="M11.7,19L11.7,19c-0.2,0-0.3,0-0.4,0s-0.2,0-0.3,0h0c0,0,0,0-0.1,0c-0.2,0-0.4-0.1-0.6-0.1h-0.1
	c-0.1,0-0.3,0-0.4,0c-0.1,0-0.1,0-0.2,0l0-0.2l0,0c0.1,0,0.1,0,0.2,0c0.4,0,0.9,0,1.3,0.1c0.1,0,0.3,0.1,0.4,0.1l0.1,0h0L11.7,19
	L11.7,19L11.7,19z"/>
<path class="st1" d="M3.5,21.3l-0.1-0.2c0.5-0.2,1.1-0.5,1.7-0.8l0,0c0.7-0.3,1.3-0.6,2-0.9l0.1,0.2c-0.7,0.3-1.3,0.6-2,0.9l0,0
	C4.6,20.8,4,21.1,3.5,21.3L3.5,21.3z"/>
<path class="st1" d="M16.8,20.5c-0.1,0-0.2,0-0.3,0c-0.2,0-0.4,0.1-0.6,0.1h-0.1l-0.3,0c-0.1,0-0.2,0-0.3,0h0c-0.2,0-0.3,0-0.5,0.1
	h0l-0.2,0c-1.4,0.2-2.7,0.3-4.1,0.3h-0.2l0.1-0.1c0.3-0.4,0.7-0.7,1-1l0,0h0c0.6,0,1.3,0,1.9-0.1h0.1c0.2,0,0.5,0,0.7-0.1
	c0.1,0,0.3,0,0.4,0l0.2,0c0.1,0,0.2,0,0.3,0h0c0.4,0,0.7-0.1,1.1-0.1c0.2,0,0.3,0,0.5-0.1s0.3,0,0.5-0.1c0.4-0.1,0.7-0.1,1.1-0.2
	c0.1,0,0.2,0,0.4-0.1l0.3-0.1c0.1,0,0.2,0,0.3-0.1c0.2,0,0.4-0.1,0.6-0.2l0.2,0c0.6-0.2,1.2-0.4,1.8-0.5h0.1
	c0.5,0.2,0.9,0.4,1.3,0.6l0.2,0.1L23,19c-1.3,0.4-2.7,0.8-4,1.1l-0.4,0.1c-0.1,0-0.3,0-0.4,0.1l-0.1,0l-0.2,0c-0.1,0-0.1,0-0.2,0
	l-0.1,0c-0.2,0-0.4,0.1-0.6,0.1C16.9,20.5,16.8,20.5,16.8,20.5L16.8,20.5L16.8,20.5z M14.7,20.7L14.7,20.7c0.2,0,0.4,0,0.5-0.1h0
	c0.1,0,0.2,0,0.3,0s0.2,0,0.3,0h0.1c0.2,0,0.4-0.1,0.6-0.1c0.1,0,0.2,0,0.3,0s0.2,0,0.3,0c0.2,0,0.4-0.1,0.6-0.1l0.1,0
	c0.1,0,0.1,0,0.2,0l0.2,0l0.1,0c0.1,0,0.2,0,0.4-0.1l0.4-0.1c1.4-0.3,2.6-0.6,3.8-1c-0.4-0.2-0.7-0.4-1.1-0.5
	c-0.5,0.2-1.1,0.4-1.8,0.5l-0.1,0c-0.2,0.1-0.5,0.1-0.7,0.2c-0.1,0-0.2,0-0.3,0.1l-0.3,0.1c-0.1,0-0.2,0-0.4,0.1
	c-0.4,0.1-0.7,0.1-1.1,0.2c-0.2,0-0.3,0.1-0.5,0.1s-0.3,0-0.5,0.1c-0.3,0.1-0.7,0.1-1.1,0.1h0c-0.1,0-0.2,0-0.3,0l-0.2,0
	c-0.1,0-0.3,0-0.4,0c-0.2,0-0.5,0-0.7,0.1h-0.1c-0.7,0.1-1.3,0.1-1.9,0.1c-0.3,0.2-0.6,0.5-0.8,0.8c1.2,0,2.5-0.1,3.9-0.3L14.7,20.7
	L14.7,20.7L14.7,20.7z"/>
<path class="st1" d="M9.5,22l-0.1-0.1c0.2-0.2,0.5-0.5,0.8-0.8l0.1-0.2l0.1,0.1l-0.1,0.2C10,21.6,9.7,21.9,9.5,22L9.5,22L9.5,22z"/>
<path class="st1" d="M20.5,17.6l1.2,0.6l-0.1,0.2l-1.2-0.6L20.5,17.6z"/>
<path class="st1" d="M12.3,19.2L12.3,19.2c-0.1,0.1-0.5,0.5-0.8,0.8l0,0l-0.1,0.1L11.3,20h0v0c0,0,0.6-0.6,0.8-0.7L12.3,19.2
	L12.3,19.2z"/>
<path class="st1" d="M12.4,19.2h-0.5c-0.1,0-0.1,0-0.2,0h-0.2c0,0,0,0,0,0h-0.1c-0.4,0-0.8-0.1-1.2-0.1c-0.1,0-0.1,0-0.2,0l-0.1,0
	c-0.1,0-0.2,0-0.2-0.1h0c-0.1,0-0.2-0.1-0.3-0.1c0.1,0,0.2,0,0.4,0l0,0.2c0.1,0,0.1,0,0.2,0c0.1,0,0.3,0,0.4,0
	c0.2,0,0.5,0.1,0.8,0.1c0.1,0,0.2,0,0.3,0s0.2,0,0.3,0h0.1c0.1,0,0.2,0,0.3,0h0.1C12.2,19.1,12.3,19.1,12.4,19.2L12.4,19.2
	C12.3,19.2,12.4,19.2,12.4,19.2z"/>
<path class="st1" d="M20.6,17.4c0,0,0,0.1,0,0.1c0,0,0,0.1,0,0.2v0l0,0l0,0C20.3,17.9,20,18,19.8,18c-0.2,0.1-0.4,0.1-0.7,0.2h0
	c-0.2,0-0.4,0.1-0.6,0.1c-0.5,0.1-1,0.2-1.5,0.3c-0.2,0-0.4,0.1-0.6,0.1l-0.1,0h0l-0.1,0c-0.1,0-0.2,0-0.3,0c-0.5,0.1-1,0.1-1.4,0.2
	c-0.5,0-0.9,0.1-1.4,0.1h-0.2c-0.1,0-0.2,0-0.3,0h-0.2l0,0c0,0-0.1-0.1-0.1-0.1c0-0.1-0.1-0.1-0.1-0.2c0,0,0,0,0-0.1s0,0,0-0.1
	c0-0.1-0.1-0.1-0.1-0.2c0,0,0-0.1,0-0.1s0-0.1,0-0.1l0-0.1c0-0.1-0.1-0.2-0.1-0.3c0,0,0-0.1,0-0.1c0,0,0,0,0,0c0,0,0-0.1,0-0.1
	s0,0,0-0.1v-0.1l0-0.2c0,0,0,0,0,0c-0.1-0.4,0-0.8,0-1.3c0.1-0.6,0.3-1.2,0.7-1.7c0.1-0.1,0.1-0.2,0.2-0.2c0.2-0.3,0.4-0.5,0.7-0.8
	c0.5-0.4,1.1-0.7,1.7-0.9c0.1,0,0.2-0.1,0.3-0.1l0.2,0c1.6-0.2,3.2,0.4,4.1,1.6c0,0,0,0.1,0.1,0.1s0,0.1,0.1,0.1s0,0.1,0.1,0.1
	c0.1,0.1,0.1,0.2,0.2,0.3c0.2,0.4,0.4,0.8,0.5,1.2c0,0,0,0.1,0,0.1c0,0.1,0,0.1,0,0.2l0,0c0,0.1,0,0.1,0,0.2c0,0,0,0.1,0,0.1
	s0,0.1,0,0.1s0,0.1,0,0.1s0,0.1,0,0.1l0,0C20.6,17,20.6,17.2,20.6,17.4C20.6,17.4,20.6,17.4,20.6,17.4z"/>
</svg>
