<svg width="32" height="32" viewBox="0 0 32 32" fill="none" xmlns="http://www.w3.org/2000/svg">
<g opacity="0.5">
<path d="M16 32C24.837 32 32 24.837 32 16C32 7.163 24.837 0 16 0C7.163 0 0 7.163 0 16C0 24.837 7.163 32 16 32Z" fill="url(#paint0_linear_5_817)"/>
<path d="M16 31.75C24.698 31.75 31.75 24.698 31.75 16C31.75 7.302 24.698 0.25 16 0.25C7.302 0.25 0.25 7.302 0.25 16C0.25 24.698 7.302 31.75 16 31.75Z" stroke="white" stroke-width="0.5"/>
<path d="M28.5999 15.9999C28.5999 22.9589 22.9589 28.5999 15.9999 28.5999C9.0409 28.5999 3.3999 22.9589 3.3999 15.9999C3.3999 9.0409 9.0409 3.3999 15.9999 3.3999C22.9589 3.3999 28.5999 9.0409 28.5999 15.9999Z" stroke="white" stroke-width="0.8"/>
<path fill-rule="evenodd" clip-rule="evenodd" d="M16.4599 10.502C16.4599 10.225 16.2599 10 16.0129 10C15.7659 10 15.5659 10.225 15.5659 10.502V22.085C15.5659 22.362 15.7659 22.587 16.0129 22.587C16.2599 22.587 16.4599 22.362 16.4599 22.085V10.502Z" fill="white"/>
<path fill-rule="evenodd" clip-rule="evenodd" d="M14.654 20.0468C14.408 20.0468 14.208 20.2718 14.207 20.5488C14.207 20.8258 14.407 21.0508 14.653 21.0508L17.331 21.0538C17.577 21.0538 17.777 20.8298 17.778 20.5528C17.778 20.2748 17.578 20.0498 17.331 20.0498L14.654 20.0468ZM12.447 13.4888C12.201 13.4888 12.001 13.7128 12 13.9898C12 14.2678 12.2 14.4918 12.447 14.4928C13.848 14.4928 18.151 14.4978 19.553 14.4988C19.799 14.4988 19.999 14.2748 20 13.9988V13.9978C20 13.7208 19.8 13.4958 19.553 13.4958L12.447 13.4888Z" fill="white"/>
<path fill-rule="evenodd" clip-rule="evenodd" d="M13.9199 10.9469C13.8811 10.9008 13.8328 10.8638 13.7782 10.8384C13.7236 10.813 13.6641 10.7998 13.6039 10.7998C13.5437 10.7998 13.4842 10.813 13.4296 10.8384C13.375 10.8638 13.3267 10.9008 13.2879 10.9469C13.2033 11.0458 13.1567 11.1717 13.1567 11.3019C13.1567 11.4321 13.2033 11.558 13.2879 11.6569L18.0949 17.0439C18.1337 17.0898 18.182 17.1267 18.2365 17.152C18.291 17.1773 18.3503 17.1904 18.4104 17.1904C18.4705 17.1904 18.5298 17.1773 18.5843 17.152C18.6388 17.1267 18.6871 17.0898 18.7259 17.0439C18.8105 16.945 18.8571 16.8191 18.8571 16.6889C18.8571 16.5587 18.8105 16.4328 18.7259 16.3339L13.9199 10.9469Z" fill="white"/>
<path fill-rule="evenodd" clip-rule="evenodd" d="M13.2959 16.346C13.2114 16.445 13.1651 16.571 13.1653 16.7012C13.1655 16.8314 13.2122 16.9572 13.2969 17.056C13.3358 17.1018 13.3842 17.1386 13.4387 17.1638C13.4932 17.1891 13.5526 17.2021 13.6127 17.202C13.6728 17.2019 13.7321 17.1887 13.7865 17.1633C13.841 17.1379 13.8892 17.1009 13.9279 17.055L18.7209 11.652C18.8055 11.553 18.8518 11.427 18.8516 11.2968C18.8514 11.1666 18.8047 11.0408 18.7199 10.942C18.681 10.896 18.6325 10.8592 18.5779 10.8339C18.5232 10.8087 18.4637 10.7957 18.4035 10.7959C18.3433 10.7961 18.2838 10.8094 18.2293 10.835C18.1748 10.8606 18.1266 10.8978 18.0879 10.944L13.2959 16.346Z" fill="white"/>
<rect x="0.5" y="0.5" width="31" height="31" rx="15.5" stroke="white" stroke-opacity="0.2"/>
</g>
<defs>
<linearGradient id="paint0_linear_5_817" x1="16" y1="0" x2="16" y2="32" gradientUnits="userSpaceOnUse">
<stop stop-color="#F0827D"/>
<stop offset="1" stop-color="#E15B54"/>
</linearGradient>
</defs>
</svg>
